<svg xmlns="http://www.w3.org/2000/svg" xmlns:xlink="http://www.w3.org/1999/xlink" width="378" zoomAndPan="magnify" viewBox="0 0 283.5 283.500005" height="378" preserveAspectRatio="xMidYMid meet" version="1.0"><defs><g/><clipPath id="4fb1213336"><path d="M 46.339844 41.582031 L 250.757812 41.582031 L 250.757812 241.503906 L 46.339844 241.503906 Z M 46.339844 41.582031 " clip-rule="nonzero"/></clipPath><clipPath id="d22fcf4964"><path d="M 56 95 L 237 95 L 237 241.503906 L 56 241.503906 Z M 56 95 " clip-rule="nonzero"/></clipPath><clipPath id="aeaa63b27b"><path d="M 2.644531 2.644531 L 280.347656 2.644531 L 280.347656 280.347656 L 2.644531 280.347656 Z M 2.644531 2.644531 " clip-rule="nonzero"/></clipPath><clipPath id="df0a8336e4"><path d="M 141.496094 2.644531 C 64.8125 2.644531 2.644531 64.8125 2.644531 141.496094 C 2.644531 218.183594 64.8125 280.347656 141.496094 280.347656 C 218.179688 280.347656 280.347656 218.183594 280.347656 141.496094 C 280.347656 64.8125 218.179688 2.644531 141.496094 2.644531 Z M 141.496094 2.644531 " clip-rule="nonzero"/></clipPath><clipPath id="467f4973ab"><path d="M 20 140 L 26.082031 140 L 26.082031 143 L 20 143 Z M 20 140 " clip-rule="nonzero"/></clipPath><clipPath id="39fbf0f277"><path d="M 19 141 L 22 141 L 22 147.527344 L 19 147.527344 Z M 19 141 " clip-rule="nonzero"/></clipPath><clipPath id="e5f66ffa15"><path d="M 14.101562 140 L 21 140 L 21 143 L 14.101562 143 Z M 14.101562 140 " clip-rule="nonzero"/></clipPath><clipPath id="58d069524b"><path d="M 19 135.546875 L 22 135.546875 L 22 142 L 19 142 Z M 19 135.546875 " clip-rule="nonzero"/></clipPath><clipPath id="a324d0c90b"><path d="M 263 140 L 269.9375 140 L 269.9375 143 L 263 143 Z M 263 140 " clip-rule="nonzero"/></clipPath><clipPath id="6c6792f3de"><path d="M 262 141 L 266 141 L 266 147.527344 L 262 147.527344 Z M 262 141 " clip-rule="nonzero"/></clipPath><clipPath id="a0d5617658"><path d="M 257.957031 140 L 265 140 L 265 143 L 257.957031 143 Z M 257.957031 140 " clip-rule="nonzero"/></clipPath><clipPath id="708ff3703d"><path d="M 262 135.546875 L 266 135.546875 L 266 142 L 262 142 Z M 262 135.546875 " clip-rule="nonzero"/></clipPath><clipPath id="c477b90789"><rect x="0" width="283" y="0" height="283"/></clipPath></defs><g transform="matrix(1, 0, 0, 1, 0, 0.000000000000005262)"><g clip-path="url(#c477b90789)"><g clip-path="url(#4fb1213336)"><path fill="#ffffff" d="M 46.347656 41.582031 L 46.347656 241.410156 L 151.804688 241.410156 C 150.78125 240.765625 149.578125 240.511719 148.507812 239.945312 C 146.382812 238.820312 144.449219 237.070312 143.050781 235.117188 C 137.351562 227.152344 143.011719 216.5 149.40625 210.9375 C 156.898438 204.421875 166.917969 201.257812 176.070312 197.871094 C 180.285156 196.316406 185.347656 195.199219 188.953125 192.417969 C 191.3125 190.59375 192.84375 187.933594 194.300781 185.386719 C 196.375 181.757812 198.242188 178.039062 200.113281 174.300781 C 205.355469 163.808594 210.710938 151.59375 209.269531 139.546875 C 208.679688 134.613281 207.109375 129.855469 204.78125 125.46875 C 203.234375 122.546875 201.367188 119.820312 199.140625 117.378906 C 196.542969 114.53125 193.78125 112.003906 190.449219 110.023438 C 176.902344 101.964844 159.179688 103.410156 147.910156 114.679688 C 144.644531 117.945312 142.230469 121.78125 139.945312 125.765625 C 139.300781 126.890625 138.300781 129.566406 136.824219 129.773438 C 135.296875 129.984375 134.398438 127.078125 133.828125 126.066406 C 131.378906 121.730469 128.816406 117.527344 125.140625 114.109375 C 115.097656 104.769531 99.261719 103.902344 87.390625 109.878906 C 75.707031 115.761719 69.210938 128.167969 66.609375 140.445312 C 63.199219 156.550781 66.496094 174.460938 74.636719 188.679688 C 80.5 198.925781 88.855469 207.660156 97.875 215.167969 C 101.617188 218.285156 105.445312 221.304688 109.261719 224.332031 C 111.265625 225.921875 113.398438 228.011719 115.851562 228.828125 C 115.203125 229.949219 114.429688 230.796875 113.453125 231.648438 C 112.367188 232.597656 111.292969 233.761719 109.859375 234.160156 C 106.308594 235.144531 102.464844 230.78125 99.972656 228.863281 C 91.296875 222.179688 82.824219 214.972656 75.667969 206.65625 C 64.007812 193.109375 57.714844 175.8125 56.503906 158.121094 C 55.574219 144.539062 57.742188 130.613281 65.046875 118.875 C 75.679688 101.800781 98.261719 91.429688 117.648438 99.40625 C 122.402344 101.359375 126.855469 104.117188 130.832031 107.375 C 132.40625 108.667969 134.535156 111.75 136.824219 111.585938 C 138.308594 111.476562 139.402344 109.960938 140.417969 109.039062 C 142.929688 106.773438 145.378906 104.382812 148.207031 102.503906 C 155.039062 97.96875 162.894531 96.171875 170.976562 95.820312 C 190.527344 94.964844 208.660156 108.550781 215.300781 126.664062 C 218.175781 134.511719 218.628906 143.28125 217.628906 151.53125 C 216.738281 158.886719 214.035156 166.140625 210.886719 172.800781 C 208.863281 177.089844 206.144531 181.417969 204.832031 185.984375 C 211.832031 183.4375 218.691406 177.859375 222.675781 171.605469 C 224.394531 168.910156 225.800781 166.070312 227.226562 163.214844 C 227.832031 162 228.414062 160.28125 229.710938 159.632812 C 230.609375 159.183594 231.492188 159.636719 232.394531 159.808594 C 233.847656 160.085938 235.410156 160.207031 236.886719 160.21875 C 235.164062 173.566406 225.992188 184.957031 214.417969 191.417969 C 210.984375 193.335938 207.496094 195.164062 203.933594 196.835938 C 200.867188 198.273438 197.625 199.554688 195.332031 202.167969 C 192.296875 205.625 190.53125 210.179688 188.269531 214.148438 C 183.566406 222.402344 177.621094 230.609375 169.777344 236.140625 C 166.496094 238.457031 162.484375 240.753906 158.394531 241.109375 C 160.683594 242.070312 164.304688 241.410156 166.78125 241.410156 L 250.667969 241.410156 L 250.667969 41.582031 Z M 46.347656 41.582031 " fill-opacity="1" fill-rule="nonzero"/></g><path fill="#000000" d="M 141.316406 90.714844 C 143.746094 90.136719 145.578125 88.691406 147.609375 87.320312 C 150.9375 85.070312 154.152344 82.65625 157.496094 80.429688 C 164.09375 76.03125 172.417969 73.113281 177.179688 66.445312 C 184.160156 56.667969 175.125 44.269531 164.386719 43.40625 C 152.0625 42.414062 141.886719 54.527344 139.289062 65.546875 C 138.046875 70.824219 138.011719 76.402344 139.011719 81.726562 C 139.582031 84.761719 140.691406 87.6875 141.316406 90.714844 Z M 141.316406 90.714844 " fill-opacity="1" fill-rule="nonzero"/><path fill="#ffffff" d="M 144.613281 79.929688 C 149.355469 78.554688 153.359375 75.738281 157.496094 73.132812 C 160.695312 71.117188 164.035156 69.324219 167.082031 67.082031 C 169.714844 65.144531 172.503906 62.847656 173.394531 59.554688 C 174.589844 55.136719 169.359375 50.304688 165.285156 49.734375 C 159.367188 48.898438 153.824219 51.96875 150.269531 56.558594 C 145.371094 62.898438 142.664062 72.011719 144.613281 79.929688 Z M 144.613281 79.929688 " fill-opacity="1" fill-rule="nonzero"/><path fill="#000000" d="M 127.535156 92.511719 C 128.710938 87.382812 130.574219 82.21875 129.019531 76.933594 C 127.136719 70.523438 121.757812 65.539062 114.953125 65.546875 C 112.632812 65.550781 110.453125 66.125 108.671875 67.710938 C 105.605469 70.441406 104.945312 75.644531 107.355469 79.03125 C 110.320312 83.199219 115.640625 85.679688 119.746094 88.535156 C 122.128906 90.1875 124.617188 92.007812 127.535156 92.511719 Z M 127.535156 92.511719 " fill-opacity="1" fill-rule="nonzero"/><path fill="#ffffff" d="M 123.941406 81.726562 C 123.773438 77.855469 121.761719 73.367188 117.949219 71.875 C 116.148438 71.171875 113.785156 70.90625 112.351562 72.507812 C 111.414062 73.554688 111.835938 74.742188 112.660156 75.707031 C 114.183594 77.492188 116.4375 79.074219 118.546875 80.082031 C 120.316406 80.925781 122.027344 81.367188 123.941406 81.726562 Z M 123.941406 81.726562 " fill-opacity="1" fill-rule="nonzero"/><g clip-path="url(#d22fcf4964)"><path fill="#000000" d="M 115.851562 228.828125 C 110.417969 226.125 105.59375 221.164062 100.871094 217.382812 C 85.230469 204.847656 71.734375 189.132812 67.03125 169.207031 C 65.800781 164.007812 65.519531 158.359375 65.519531 153.03125 C 65.519531 134.347656 73.710938 114.628906 92.484375 107.808594 C 103.761719 103.707031 117.574219 106.820312 126.039062 115.28125 C 129.273438 118.515625 131.59375 122.40625 133.828125 126.367188 C 134.417969 127.414062 135.246094 130.179688 136.824219 129.984375 C 138.261719 129.804688 139.152344 127.453125 139.773438 126.367188 C 141.796875 122.824219 143.886719 119.148438 146.722656 116.179688 C 156.933594 105.480469 172.214844 101.691406 185.957031 107.882812 C 190.46875 109.917969 194.796875 112.726562 198.066406 116.480469 C 200.847656 119.671875 203.347656 122.859375 205.25 126.664062 C 207.316406 130.800781 208.71875 135.253906 209.269531 139.847656 C 210.679688 151.632812 205.238281 163.75 200.113281 174 C 197.113281 179.996094 194.238281 187.8125 188.953125 192.175781 C 185.355469 195.148438 180.078125 196.28125 175.769531 197.871094 C 167.027344 201.105469 157.734375 204.136719 150.304688 209.957031 C 142.292969 216.234375 136.425781 229.167969 144.914062 237.511719 C 146.210938 238.789062 147.703125 239.824219 149.40625 240.492188 C 158 243.851562 167.746094 238.792969 173.972656 232.996094 C 179.570312 227.78125 184.09375 221.644531 187.925781 215.046875 C 190.503906 210.609375 192.421875 205.210938 196.15625 201.589844 C 198.535156 199.277344 201.59375 198.09375 204.53125 196.695312 C 207.984375 195.046875 211.378906 193.285156 214.71875 191.417969 C 225.949219 185.148438 235.832031 173.46875 236.886719 160.21875 C 235.511719 160.191406 234.046875 160.066406 232.691406 159.808594 C 231.617188 159.601562 230.492188 159.046875 229.429688 159.628906 C 228.136719 160.335938 227.550781 162.269531 226.925781 163.515625 C 225.445312 166.480469 223.992188 169.488281 222.074219 172.203125 C 217.648438 178.480469 211.503906 182.472656 204.832031 185.984375 C 208.054688 178.234375 212.507812 170.964844 215.007812 162.917969 C 219.121094 149.6875 219.578125 134.914062 213.550781 122.171875 C 211.636719 118.121094 209.015625 114.476562 206.109375 111.085938 C 202.636719 107.035156 198.210938 103.546875 193.445312 101.125 C 188.433594 98.578125 182.679688 96.070312 176.96875 95.820312 C 167.21875 95.390625 157.613281 96.753906 149.105469 101.757812 C 145.867188 103.664062 143.21875 106.304688 140.417969 108.773438 C 139.425781 109.652344 138.242188 111.351562 136.824219 111.488281 C 134.835938 111.679688 132.773438 108.757812 131.429688 107.621094 C 127.671875 104.453125 123.363281 101.726562 118.847656 99.785156 C 101.292969 92.234375 79.699219 99.207031 68.183594 114.082031 C 58.367188 126.757812 55.433594 142.761719 56.503906 158.421875 C 57.761719 176.742188 64.476562 194.285156 76.691406 208.15625 C 84.367188 216.875 93.597656 224.03125 102.667969 231.222656 C 104.867188 232.960938 107.8125 235.324219 110.757812 233.945312 C 111.902344 233.40625 112.816406 232.480469 113.75 231.648438 C 114.703125 230.804688 115.390625 230.015625 115.851562 228.828125 Z M 115.851562 228.828125 " fill-opacity="1" fill-rule="nonzero"/></g><path fill="#000000" d="M 168.878906 118.105469 C 160.558594 119.296875 152.0625 123.1875 145.8125 128.8125 C 143.335938 131.042969 141.265625 133.632812 139.222656 136.253906 C 138.496094 137.1875 137.554688 139.109375 136.222656 139.238281 C 134.839844 139.371094 133.625 137.441406 132.84375 136.550781 C 130.433594 133.804688 127.992188 131.058594 125.140625 128.761719 C 114.542969 120.234375 97.050781 116.160156 86.921875 127.867188 C 81.695312 133.910156 80.28125 141.140625 79.550781 148.835938 C 79.113281 153.441406 79.035156 158.324219 79.691406 162.917969 C 81.863281 178.117188 90.4375 191.011719 100.523438 202.164062 C 104.558594 206.628906 109.09375 210.597656 113.453125 214.746094 C 115.234375 216.4375 117.664062 218.828125 120.34375 218.582031 C 123.265625 218.3125 125.449219 215.90625 127.535156 214.109375 C 131.675781 210.542969 135.714844 206.867188 140.117188 203.625 C 151.039062 195.589844 163.902344 190.683594 175.472656 183.707031 C 182.726562 179.328125 189.996094 173.789062 193.128906 165.613281 C 196.199219 157.59375 196.402344 148.554688 195.328125 140.148438 C 194.53125 133.878906 192.617188 127.507812 187.753906 123.121094 C 184.71875 120.382812 180.902344 119.117188 176.96875 118.335938 C 174.402344 117.828125 171.476562 117.734375 168.878906 118.105469 Z M 168.878906 118.105469 " fill-opacity="1" fill-rule="nonzero"/><path fill="#ffffff" d="M 150.003906 231.222656 C 153.253906 231.636719 156.324219 232.664062 159.59375 231.691406 C 162.261719 230.894531 164.40625 229.191406 166.484375 227.410156 C 170.929688 223.597656 174.242188 218.683594 177.46875 213.847656 C 179.25 211.175781 181.253906 208.5 182.363281 205.457031 C 175.199219 206.511719 167.804688 210.265625 161.390625 213.472656 C 157.738281 215.296875 154.109375 217.457031 151.941406 221.039062 C 150.011719 224.226562 150.003906 227.625 150.003906 231.222656 Z M 150.003906 231.222656 " fill-opacity="1" fill-rule="nonzero"/><g clip-path="url(#aeaa63b27b)"><g clip-path="url(#df0a8336e4)"><path stroke-linecap="butt" transform="matrix(0.748773, 0, 0, 0.748773, 2.645943, 2.645955)" fill="none" stroke-linejoin="miter" d="M 185.436866 -0.00190196 C 83.024552 -0.00190196 -0.00188529 83.024535 -0.00188529 185.43685 C -0.00188529 287.854381 83.024552 370.875601 185.436866 370.875601 C 287.854398 370.875601 370.875618 287.854381 370.875618 185.43685 C 370.875618 83.024535 287.854398 -0.00190196 185.436866 -0.00190196 Z M 185.436866 -0.00190196 " stroke="#e780bf" stroke-width="12" stroke-opacity="1" stroke-miterlimit="4"/></g></g><g clip-path="url(#467f4973ab)"><path fill="#ffffff" d="M 23.136719 140.40625 C 23.539062 140.40625 23.925781 140.433594 24.296875 140.488281 C 24.667969 140.542969 24.996094 140.621094 25.277344 140.722656 C 25.5625 140.828125 25.78125 140.945312 25.933594 141.078125 C 26.089844 141.210938 26.164062 141.351562 26.164062 141.496094 C 26.164062 141.640625 26.089844 141.777344 25.933594 141.910156 C 25.78125 142.046875 25.5625 142.164062 25.277344 142.265625 C 24.996094 142.367188 24.667969 142.445312 24.296875 142.5 C 23.925781 142.554688 23.539062 142.585938 23.136719 142.585938 C 22.734375 142.585938 22.347656 142.554688 21.976562 142.5 C 21.605469 142.445312 21.277344 142.367188 20.996094 142.265625 C 20.710938 142.164062 20.492188 142.046875 20.339844 141.910156 C 20.183594 141.777344 20.109375 141.640625 20.109375 141.496094 C 20.109375 141.351562 20.183594 141.210938 20.339844 141.078125 C 20.492188 140.945312 20.710938 140.828125 20.996094 140.722656 C 21.277344 140.621094 21.605469 140.542969 21.976562 140.488281 C 22.347656 140.433594 22.734375 140.40625 23.136719 140.40625 Z M 23.136719 140.40625 " fill-opacity="1" fill-rule="nonzero"/></g><path fill="#ffffff" d="M 21.488281 144.386719 C 21.203125 144.105469 20.949219 143.8125 20.726562 143.511719 C 20.503906 143.207031 20.328125 142.921875 20.199219 142.648438 C 20.070312 142.375 19.996094 142.136719 19.984375 141.933594 C 19.96875 141.730469 20.011719 141.578125 20.117188 141.476562 C 20.21875 141.375 20.371094 141.328125 20.574219 141.34375 C 20.777344 141.359375 21.015625 141.429688 21.289062 141.558594 C 21.558594 141.6875 21.847656 141.863281 22.148438 142.085938 C 22.449219 142.308594 22.742188 142.5625 23.027344 142.847656 C 23.3125 143.132812 23.566406 143.425781 23.789062 143.726562 C 24.011719 144.027344 24.1875 144.316406 24.316406 144.589844 C 24.445312 144.859375 24.515625 145.097656 24.53125 145.300781 C 24.546875 145.503906 24.5 145.65625 24.398438 145.761719 C 24.296875 145.863281 24.144531 145.90625 23.941406 145.890625 C 23.738281 145.878906 23.5 145.804688 23.226562 145.675781 C 22.953125 145.546875 22.667969 145.371094 22.367188 145.148438 C 22.0625 144.925781 21.769531 144.671875 21.488281 144.386719 Z M 21.488281 144.386719 " fill-opacity="1" fill-rule="nonzero"/><g clip-path="url(#39fbf0f277)"><path fill="#ffffff" d="M 20.132812 141.46875 C 20.277344 141.46875 20.417969 141.542969 20.550781 141.699219 C 20.683594 141.851562 20.800781 142.070312 20.90625 142.355469 C 21.007812 142.640625 21.085938 142.964844 21.140625 143.335938 C 21.195312 143.707031 21.222656 144.09375 21.222656 144.496094 C 21.222656 144.898438 21.195312 145.285156 21.140625 145.65625 C 21.085938 146.027344 21.007812 146.355469 20.90625 146.640625 C 20.800781 146.921875 20.683594 147.140625 20.550781 147.296875 C 20.417969 147.449219 20.277344 147.527344 20.132812 147.527344 C 19.988281 147.527344 19.851562 147.449219 19.71875 147.296875 C 19.585938 147.140625 19.464844 146.921875 19.363281 146.640625 C 19.261719 146.355469 19.183594 146.027344 19.128906 145.65625 C 19.074219 145.285156 19.046875 144.898438 19.046875 144.496094 C 19.046875 144.09375 19.074219 143.707031 19.128906 143.335938 C 19.183594 142.964844 19.261719 142.640625 19.363281 142.355469 C 19.464844 142.070312 19.585938 141.851562 19.71875 141.699219 C 19.851562 141.542969 19.988281 141.46875 20.132812 141.46875 Z M 20.132812 141.46875 " fill-opacity="1" fill-rule="nonzero"/></g><path fill="#ffffff" d="M 15.871094 145.761719 C 15.765625 145.65625 15.722656 145.503906 15.738281 145.300781 C 15.753906 145.097656 15.824219 144.859375 15.953125 144.589844 C 16.082031 144.316406 16.257812 144.027344 16.480469 143.726562 C 16.703125 143.425781 16.957031 143.132812 17.242188 142.847656 C 17.523438 142.5625 17.816406 142.308594 18.121094 142.085938 C 18.421875 141.863281 18.707031 141.6875 18.980469 141.558594 C 19.253906 141.429688 19.492188 141.359375 19.695312 141.34375 C 19.898438 141.332031 20.050781 141.375 20.152344 141.476562 C 20.253906 141.578125 20.300781 141.730469 20.285156 141.933594 C 20.269531 142.136719 20.199219 142.375 20.070312 142.648438 C 19.941406 142.921875 19.765625 143.207031 19.542969 143.511719 C 19.320312 143.8125 19.066406 144.105469 18.78125 144.386719 C 18.496094 144.671875 18.203125 144.925781 17.902344 145.148438 C 17.601562 145.371094 17.316406 145.546875 17.042969 145.675781 C 16.769531 145.804688 16.53125 145.878906 16.328125 145.890625 C 16.125 145.90625 15.972656 145.863281 15.871094 145.761719 Z M 15.871094 145.761719 " fill-opacity="1" fill-rule="nonzero"/><g clip-path="url(#e5f66ffa15)"><path fill="#ffffff" d="M 17.132812 140.40625 C 17.535156 140.40625 17.921875 140.433594 18.292969 140.488281 C 18.664062 140.542969 18.992188 140.621094 19.273438 140.722656 C 19.558594 140.828125 19.777344 140.945312 19.929688 141.078125 C 20.085938 141.210938 20.160156 141.351562 20.160156 141.496094 C 20.160156 141.640625 20.085938 141.777344 19.929688 141.910156 C 19.777344 142.046875 19.558594 142.164062 19.273438 142.265625 C 18.992188 142.367188 18.664062 142.445312 18.292969 142.5 C 17.921875 142.554688 17.535156 142.585938 17.132812 142.585938 C 16.730469 142.585938 16.34375 142.554688 15.972656 142.5 C 15.601562 142.445312 15.273438 142.367188 14.992188 142.265625 C 14.707031 142.164062 14.488281 142.046875 14.332031 141.910156 C 14.179688 141.777344 14.101562 141.640625 14.101562 141.496094 C 14.101562 141.351562 14.179688 141.210938 14.332031 141.078125 C 14.488281 140.945312 14.707031 140.828125 14.992188 140.722656 C 15.273438 140.621094 15.601562 140.542969 15.972656 140.488281 C 16.34375 140.433594 16.730469 140.40625 17.132812 140.40625 Z M 17.132812 140.40625 " fill-opacity="1" fill-rule="nonzero"/></g><path fill="#ffffff" d="M 17.242188 140.140625 C 16.957031 139.859375 16.703125 139.566406 16.480469 139.265625 C 16.257812 138.960938 16.082031 138.675781 15.953125 138.402344 C 15.824219 138.128906 15.753906 137.890625 15.738281 137.6875 C 15.722656 137.484375 15.765625 137.332031 15.871094 137.230469 C 15.972656 137.128906 16.125 137.085938 16.328125 137.097656 C 16.53125 137.113281 16.769531 137.183594 17.042969 137.3125 C 17.316406 137.441406 17.601562 137.617188 17.902344 137.839844 C 18.203125 138.0625 18.496094 138.316406 18.78125 138.601562 C 19.066406 138.886719 19.320312 139.179688 19.542969 139.480469 C 19.765625 139.78125 19.941406 140.070312 20.070312 140.34375 C 20.199219 140.617188 20.269531 140.851562 20.285156 141.054688 C 20.300781 141.257812 20.253906 141.414062 20.152344 141.515625 C 20.050781 141.617188 19.898438 141.660156 19.695312 141.644531 C 19.492188 141.632812 19.253906 141.558594 18.980469 141.429688 C 18.707031 141.304688 18.421875 141.125 18.121094 140.902344 C 17.816406 140.679688 17.523438 140.425781 17.242188 140.140625 Z M 17.242188 140.140625 " fill-opacity="1" fill-rule="nonzero"/><g clip-path="url(#58d069524b)"><path fill="#ffffff" d="M 20.132812 135.464844 C 20.277344 135.464844 20.417969 135.539062 20.550781 135.695312 C 20.683594 135.847656 20.800781 136.066406 20.90625 136.351562 C 21.007812 136.632812 21.085938 136.960938 21.140625 137.332031 C 21.195312 137.703125 21.222656 138.089844 21.222656 138.492188 C 21.222656 138.894531 21.195312 139.28125 21.140625 139.652344 C 21.085938 140.023438 21.007812 140.351562 20.90625 140.632812 C 20.800781 140.917969 20.683594 141.136719 20.550781 141.292969 C 20.417969 141.445312 20.277344 141.523438 20.132812 141.523438 C 19.988281 141.523438 19.851562 141.445312 19.71875 141.292969 C 19.585938 141.136719 19.464844 140.917969 19.363281 140.632812 C 19.261719 140.351562 19.183594 140.023438 19.128906 139.652344 C 19.074219 139.28125 19.046875 138.894531 19.046875 138.492188 C 19.046875 138.089844 19.074219 137.703125 19.128906 137.332031 C 19.183594 136.960938 19.261719 136.632812 19.363281 136.351562 C 19.464844 136.066406 19.585938 135.847656 19.71875 135.695312 C 19.851562 135.539062 19.988281 135.464844 20.132812 135.464844 Z M 20.132812 135.464844 " fill-opacity="1" fill-rule="nonzero"/></g><path fill="#ffffff" d="M 20.113281 141.515625 C 20.011719 141.410156 19.96875 141.257812 19.984375 141.054688 C 19.996094 140.851562 20.070312 140.617188 20.199219 140.34375 C 20.328125 140.070312 20.503906 139.78125 20.726562 139.480469 C 20.949219 139.179688 21.203125 138.886719 21.488281 138.601562 C 21.769531 138.316406 22.0625 138.0625 22.367188 137.839844 C 22.667969 137.617188 22.953125 137.441406 23.226562 137.3125 C 23.5 137.183594 23.738281 137.113281 23.941406 137.097656 C 24.144531 137.085938 24.296875 137.128906 24.398438 137.230469 C 24.5 137.332031 24.546875 137.484375 24.53125 137.6875 C 24.515625 137.890625 24.445312 138.128906 24.316406 138.402344 C 24.1875 138.675781 24.011719 138.960938 23.789062 139.265625 C 23.566406 139.566406 23.3125 139.859375 23.027344 140.140625 C 22.742188 140.425781 22.449219 140.679688 22.148438 140.902344 C 21.847656 141.125 21.558594 141.304688 21.289062 141.429688 C 21.015625 141.558594 20.777344 141.632812 20.574219 141.644531 C 20.371094 141.660156 20.21875 141.617188 20.113281 141.515625 Z M 20.113281 141.515625 " fill-opacity="1" fill-rule="nonzero"/><g clip-path="url(#a324d0c90b)"><path fill="#ffffff" d="M 266.992188 140.40625 C 267.394531 140.40625 267.777344 140.433594 268.148438 140.488281 C 268.519531 140.542969 268.847656 140.621094 269.132812 140.722656 C 269.417969 140.828125 269.636719 140.945312 269.789062 141.078125 C 269.941406 141.210938 270.019531 141.351562 270.019531 141.496094 C 270.019531 141.640625 269.941406 141.777344 269.789062 141.910156 C 269.636719 142.046875 269.417969 142.164062 269.132812 142.265625 C 268.847656 142.367188 268.519531 142.445312 268.148438 142.5 C 267.777344 142.554688 267.394531 142.585938 266.992188 142.585938 C 266.589844 142.585938 266.203125 142.554688 265.832031 142.5 C 265.460938 142.445312 265.132812 142.367188 264.847656 142.265625 C 264.566406 142.164062 264.347656 142.046875 264.191406 141.910156 C 264.039062 141.777344 263.960938 141.640625 263.960938 141.496094 C 263.960938 141.351562 264.039062 141.210938 264.191406 141.078125 C 264.347656 140.945312 264.566406 140.828125 264.847656 140.722656 C 265.132812 140.621094 265.460938 140.542969 265.832031 140.488281 C 266.203125 140.433594 266.589844 140.40625 266.992188 140.40625 Z M 266.992188 140.40625 " fill-opacity="1" fill-rule="nonzero"/></g><path fill="#ffffff" d="M 265.339844 144.386719 C 265.058594 144.105469 264.804688 143.8125 264.582031 143.511719 C 264.355469 143.207031 264.179688 142.921875 264.050781 142.648438 C 263.921875 142.375 263.851562 142.136719 263.835938 141.933594 C 263.824219 141.730469 263.867188 141.578125 263.96875 141.476562 C 264.070312 141.375 264.222656 141.328125 264.425781 141.34375 C 264.628906 141.359375 264.867188 141.429688 265.140625 141.558594 C 265.414062 141.6875 265.703125 141.863281 266.003906 142.085938 C 266.304688 142.308594 266.597656 142.5625 266.882812 142.847656 C 267.164062 143.132812 267.417969 143.425781 267.644531 143.726562 C 267.867188 144.027344 268.042969 144.316406 268.171875 144.589844 C 268.300781 144.859375 268.371094 145.097656 268.386719 145.300781 C 268.398438 145.503906 268.355469 145.65625 268.253906 145.761719 C 268.152344 145.863281 268 145.90625 267.796875 145.890625 C 267.59375 145.878906 267.355469 145.804688 267.082031 145.675781 C 266.808594 145.546875 266.519531 145.371094 266.21875 145.148438 C 265.917969 144.925781 265.625 144.671875 265.339844 144.386719 Z M 265.339844 144.386719 " fill-opacity="1" fill-rule="nonzero"/><g clip-path="url(#6c6792f3de)"><path fill="#ffffff" d="M 263.988281 141.46875 C 264.132812 141.46875 264.273438 141.542969 264.40625 141.699219 C 264.539062 141.851562 264.65625 142.070312 264.757812 142.355469 C 264.859375 142.640625 264.941406 142.964844 264.996094 143.335938 C 265.050781 143.707031 265.078125 144.09375 265.078125 144.496094 C 265.078125 144.898438 265.050781 145.285156 264.996094 145.65625 C 264.941406 146.027344 264.859375 146.355469 264.757812 146.640625 C 264.65625 146.921875 264.539062 147.140625 264.40625 147.296875 C 264.273438 147.449219 264.132812 147.527344 263.988281 147.527344 C 263.84375 147.527344 263.707031 147.449219 263.570312 147.296875 C 263.4375 147.140625 263.320312 146.921875 263.21875 146.640625 C 263.117188 146.355469 263.039062 146.027344 262.980469 145.65625 C 262.925781 145.285156 262.898438 144.898438 262.898438 144.496094 C 262.898438 144.09375 262.925781 143.707031 262.980469 143.335938 C 263.039062 142.964844 263.117188 142.640625 263.21875 142.355469 C 263.320312 142.070312 263.4375 141.851562 263.570312 141.699219 C 263.707031 141.542969 263.84375 141.46875 263.988281 141.46875 Z M 263.988281 141.46875 " fill-opacity="1" fill-rule="nonzero"/></g><path fill="#ffffff" d="M 259.722656 145.761719 C 259.621094 145.65625 259.578125 145.503906 259.59375 145.300781 C 259.605469 145.097656 259.675781 144.859375 259.804688 144.589844 C 259.933594 144.316406 260.109375 144.027344 260.335938 143.726562 C 260.558594 143.425781 260.8125 143.132812 261.09375 142.847656 C 261.378906 142.5625 261.671875 142.308594 261.972656 142.085938 C 262.273438 141.863281 262.5625 141.6875 262.835938 141.558594 C 263.109375 141.429688 263.347656 141.359375 263.550781 141.34375 C 263.753906 141.332031 263.90625 141.375 264.007812 141.476562 C 264.109375 141.578125 264.152344 141.730469 264.140625 141.933594 C 264.125 142.136719 264.054688 142.375 263.925781 142.648438 C 263.796875 142.921875 263.621094 143.207031 263.398438 143.511719 C 263.171875 143.8125 262.917969 144.105469 262.636719 144.386719 C 262.351562 144.671875 262.058594 144.925781 261.757812 145.148438 C 261.457031 145.371094 261.167969 145.546875 260.894531 145.675781 C 260.621094 145.804688 260.382812 145.878906 260.179688 145.890625 C 259.976562 145.90625 259.824219 145.863281 259.722656 145.761719 Z M 259.722656 145.761719 " fill-opacity="1" fill-rule="nonzero"/><g clip-path="url(#a0d5617658)"><path fill="#ffffff" d="M 260.988281 140.40625 C 261.386719 140.40625 261.773438 140.433594 262.144531 140.488281 C 262.515625 140.542969 262.84375 140.621094 263.128906 140.722656 C 263.414062 140.828125 263.632812 140.945312 263.785156 141.078125 C 263.9375 141.210938 264.015625 141.351562 264.015625 141.496094 C 264.015625 141.640625 263.9375 141.777344 263.785156 141.910156 C 263.632812 142.046875 263.414062 142.164062 263.128906 142.265625 C 262.84375 142.367188 262.515625 142.445312 262.144531 142.5 C 261.773438 142.554688 261.386719 142.585938 260.988281 142.585938 C 260.585938 142.585938 260.199219 142.554688 259.828125 142.5 C 259.457031 142.445312 259.128906 142.367188 258.84375 142.265625 C 258.558594 142.164062 258.339844 142.046875 258.1875 141.910156 C 258.035156 141.777344 257.957031 141.640625 257.957031 141.496094 C 257.957031 141.351562 258.035156 141.210938 258.1875 141.078125 C 258.339844 140.945312 258.558594 140.828125 258.84375 140.722656 C 259.128906 140.621094 259.457031 140.542969 259.828125 140.488281 C 260.199219 140.433594 260.585938 140.40625 260.988281 140.40625 Z M 260.988281 140.40625 " fill-opacity="1" fill-rule="nonzero"/></g><path fill="#ffffff" d="M 261.09375 140.140625 C 260.8125 139.859375 260.558594 139.566406 260.335938 139.265625 C 260.109375 138.960938 259.933594 138.675781 259.804688 138.402344 C 259.679688 138.128906 259.605469 137.890625 259.59375 137.6875 C 259.578125 137.484375 259.621094 137.332031 259.722656 137.230469 C 259.824219 137.128906 259.976562 137.085938 260.179688 137.097656 C 260.382812 137.113281 260.621094 137.183594 260.894531 137.3125 C 261.167969 137.441406 261.457031 137.617188 261.757812 137.839844 C 262.058594 138.0625 262.351562 138.316406 262.636719 138.601562 C 262.917969 138.886719 263.171875 139.179688 263.398438 139.480469 C 263.621094 139.78125 263.796875 140.070312 263.925781 140.34375 C 264.054688 140.617188 264.125 140.851562 264.140625 141.054688 C 264.152344 141.257812 264.109375 141.414062 264.007812 141.515625 C 263.90625 141.617188 263.753906 141.660156 263.550781 141.644531 C 263.347656 141.632812 263.109375 141.558594 262.835938 141.429688 C 262.5625 141.304688 262.273438 141.125 261.972656 140.902344 C 261.671875 140.679688 261.378906 140.425781 261.09375 140.140625 Z M 261.09375 140.140625 " fill-opacity="1" fill-rule="nonzero"/><g clip-path="url(#708ff3703d)"><path fill="#ffffff" d="M 263.988281 135.464844 C 264.132812 135.464844 264.273438 135.539062 264.40625 135.695312 C 264.539062 135.847656 264.65625 136.066406 264.757812 136.351562 C 264.859375 136.632812 264.941406 136.960938 264.996094 137.332031 C 265.050781 137.703125 265.078125 138.089844 265.078125 138.492188 C 265.078125 138.894531 265.050781 139.28125 264.996094 139.652344 C 264.941406 140.023438 264.859375 140.351562 264.757812 140.632812 C 264.65625 140.917969 264.539062 141.136719 264.40625 141.292969 C 264.273438 141.445312 264.132812 141.523438 263.988281 141.523438 C 263.84375 141.523438 263.707031 141.445312 263.570312 141.292969 C 263.4375 141.136719 263.320312 140.917969 263.21875 140.632812 C 263.117188 140.351562 263.039062 140.023438 262.980469 139.652344 C 262.925781 139.28125 262.898438 138.894531 262.898438 138.492188 C 262.898438 138.089844 262.925781 137.703125 262.980469 137.332031 C 263.039062 136.960938 263.117188 136.632812 263.21875 136.351562 C 263.320312 136.066406 263.4375 135.847656 263.570312 135.695312 C 263.707031 135.539062 263.84375 135.464844 263.988281 135.464844 Z M 263.988281 135.464844 " fill-opacity="1" fill-rule="nonzero"/></g><path fill="#ffffff" d="M 263.96875 141.515625 C 263.867188 141.410156 263.824219 141.257812 263.835938 141.054688 C 263.851562 140.851562 263.921875 140.617188 264.050781 140.34375 C 264.179688 140.070312 264.355469 139.78125 264.582031 139.480469 C 264.804688 139.179688 265.058594 138.886719 265.339844 138.601562 C 265.625 138.316406 265.917969 138.0625 266.21875 137.839844 C 266.519531 137.617188 266.808594 137.441406 267.082031 137.3125 C 267.355469 137.183594 267.59375 137.113281 267.796875 137.097656 C 268 137.085938 268.152344 137.128906 268.253906 137.230469 C 268.355469 137.332031 268.398438 137.484375 268.386719 137.6875 C 268.371094 137.890625 268.300781 138.128906 268.171875 138.402344 C 268.042969 138.675781 267.867188 138.960938 267.644531 139.265625 C 267.417969 139.566406 267.164062 139.859375 266.882812 140.140625 C 266.597656 140.425781 266.304688 140.679688 266.003906 140.902344 C 265.703125 141.125 265.414062 141.304688 265.140625 141.429688 C 264.867188 141.558594 264.628906 141.632812 264.425781 141.644531 C 264.222656 141.660156 264.070312 141.617188 263.96875 141.515625 Z M 263.96875 141.515625 " fill-opacity="1" fill-rule="nonzero"/><g fill="#000000" fill-opacity="1"><g transform="translate(29.419434, 107.958026)"><g><path d="M 2.515625 -1.4375 C 2.253906 -0.75 1.84375 -0.242188 1.28125 0.078125 C 0.71875 0.410156 -0.0820312 0.378906 -1.125 -0.015625 C -2.007812 -0.347656 -2.75 -0.796875 -3.34375 -1.359375 C -3.9375 -1.929688 -4.140625 -2.46875 -3.953125 -2.96875 C -3.878906 -3.15625 -3.703125 -3.394531 -3.421875 -3.6875 C -2.378906 -2.707031 -1.398438 -2.039062 -0.484375 -1.6875 C 0.0546875 -1.476562 0.519531 -1.425781 0.90625 -1.53125 C 1.300781 -1.632812 1.570312 -1.882812 1.71875 -2.28125 C 1.84375 -2.601562 1.804688 -2.957031 1.609375 -3.34375 C 1.421875 -3.726562 1.019531 -4.191406 0.40625 -4.734375 C -0.726562 -5.691406 -2.425781 -6.9375 -4.6875 -8.46875 C -6.957031 -10.007812 -8.875 -11.242188 -10.4375 -12.171875 C -10.769531 -11.222656 -11.019531 -10.414062 -11.1875 -9.75 C -11.351562 -9.09375 -11.488281 -8.40625 -11.59375 -7.6875 C -12.195312 -8.03125 -12.519531 -8.535156 -12.5625 -9.203125 C -12.613281 -9.867188 -12.414062 -10.789062 -11.96875 -11.96875 C -11.6875 -12.707031 -11.332031 -13.484375 -10.90625 -14.296875 C -10.488281 -15.117188 -10.101562 -15.828125 -9.75 -16.421875 C -9.507812 -16.097656 -9.394531 -15.75 -9.40625 -15.375 C -9.425781 -15 -9.503906 -14.632812 -9.640625 -14.28125 L -10.0625 -13.125 C -9.757812 -13.195312 -9.460938 -13.179688 -9.171875 -13.078125 C -8.828125 -12.921875 -8 -12.445312 -6.6875 -11.65625 C -5.382812 -10.863281 -4.019531 -9.957031 -2.59375 -8.9375 C -1.164062 -7.914062 -0.015625 -6.960938 0.859375 -6.078125 C 1.765625 -5.160156 2.332031 -4.328125 2.5625 -3.578125 C 2.789062 -2.828125 2.773438 -2.113281 2.515625 -1.4375 Z M 2.515625 -1.4375 "/></g></g></g><g fill="#000000" fill-opacity="1"><g transform="translate(34.266496, 95.800485)"><g><path d="M 1.3125 -1.15625 C 1.09375 -0.726562 0.71875 -0.476562 0.1875 -0.40625 C -0.34375 -0.332031 -0.878906 -0.4375 -1.421875 -0.71875 C -1.867188 -0.945312 -2.382812 -1.335938 -2.96875 -1.890625 C -3.5625 -2.453125 -4.039062 -3 -4.40625 -3.53125 C -4.78125 -4.070312 -4.914062 -4.441406 -4.8125 -4.640625 C -4.769531 -4.734375 -4.648438 -4.847656 -4.453125 -4.984375 C -4.265625 -5.128906 -4.070312 -5.234375 -3.875 -5.296875 C -3.601562 -4.828125 -3.171875 -4.257812 -2.578125 -3.59375 C -1.984375 -2.925781 -1.414062 -2.453125 -0.875 -2.171875 C -0.632812 -2.046875 -0.363281 -1.953125 -0.0625 -1.890625 C 0.226562 -1.835938 0.4375 -1.929688 0.5625 -2.171875 C 0.800781 -2.640625 0.566406 -3.46875 -0.140625 -4.65625 C -0.859375 -5.851562 -1.640625 -6.972656 -2.484375 -8.015625 C -1.960938 -8.703125 -1.550781 -8.96875 -1.25 -8.8125 C -1.21875 -8.800781 -1.070312 -8.628906 -0.8125 -8.296875 C -0.320312 -7.710938 0.140625 -7.1875 0.578125 -6.71875 C 1.015625 -6.25 1.429688 -5.914062 1.828125 -5.71875 C 2.273438 -5.488281 2.585938 -5.546875 2.765625 -5.890625 C 2.898438 -6.160156 2.9375 -6.546875 2.875 -7.046875 C 2.820312 -7.554688 2.664062 -8.125 2.40625 -8.75 C 2.144531 -9.375 1.785156 -9.992188 1.328125 -10.609375 L 1.6875 -10.796875 C 2.226562 -10.148438 2.660156 -9.460938 2.984375 -8.734375 C 3.304688 -8.015625 3.488281 -7.3125 3.53125 -6.625 C 3.570312 -5.945312 3.472656 -5.378906 3.234375 -4.921875 C 2.953125 -4.347656 2.578125 -4.082031 2.109375 -4.125 C 1.640625 -4.175781 1.078125 -4.367188 0.421875 -4.703125 C 0.867188 -3.921875 1.179688 -3.238281 1.359375 -2.65625 C 1.546875 -2.070312 1.53125 -1.570312 1.3125 -1.15625 Z M 1.3125 -1.15625 "/></g></g></g><g fill="#000000" fill-opacity="1"><g transform="translate(40.54031, 84.181686)"><g><path d="M 1.546875 -1.203125 C 1.203125 -0.679688 0.773438 -0.410156 0.265625 -0.390625 C -0.234375 -0.378906 -0.769531 -0.5625 -1.34375 -0.9375 C -2.457031 -1.632812 -3.703125 -2.953125 -5.078125 -4.890625 C -6.460938 -6.835938 -7.585938 -8.753906 -8.453125 -10.640625 C -9.328125 -12.523438 -9.625 -13.691406 -9.34375 -14.140625 C -9.207031 -14.335938 -8.929688 -14.40625 -8.515625 -14.34375 C -8.109375 -14.289062 -7.738281 -14.164062 -7.40625 -13.96875 C -6.851562 -13.613281 -6.179688 -12.875 -5.390625 -11.75 C -4.609375 -10.625 -3.910156 -9.328125 -3.296875 -7.859375 C -2.679688 -6.398438 -2.304688 -5.023438 -2.171875 -3.734375 C -1.515625 -3.128906 -0.992188 -2.703125 -0.609375 -2.453125 C -0.179688 -2.179688 0.175781 -2.050781 0.46875 -2.0625 C 0.757812 -2.070312 0.984375 -2.195312 1.140625 -2.4375 C 1.410156 -2.863281 1.421875 -3.492188 1.171875 -4.328125 C 0.921875 -5.160156 0.507812 -6.019531 -0.0625 -6.90625 L 0.453125 -7.1875 C 1.210938 -5.957031 1.691406 -4.828125 1.890625 -3.796875 C 2.097656 -2.765625 1.984375 -1.898438 1.546875 -1.203125 Z M -3.109375 -4.78125 C -3.378906 -5.882812 -3.800781 -7.023438 -4.375 -8.203125 C -4.957031 -9.378906 -5.5625 -10.410156 -6.1875 -11.296875 C -6.8125 -12.179688 -7.332031 -12.753906 -7.75 -13.015625 C -7.851562 -12.847656 -7.6875 -12.289062 -7.25 -11.34375 C -6.8125 -10.40625 -6.210938 -9.320312 -5.453125 -8.09375 C -4.691406 -6.875 -3.910156 -5.769531 -3.109375 -4.78125 Z M -3.109375 -4.78125 "/></g></g></g><g fill="#000000" fill-opacity="1"><g transform="translate(45.553845, 76.602715)"><g><path d="M -4.671875 -8.859375 C -4.847656 -8.617188 -5.054688 -8.457031 -5.296875 -8.375 C -5.535156 -8.289062 -5.765625 -8.332031 -5.984375 -8.5 C -6.242188 -8.695312 -6.363281 -9.015625 -6.34375 -9.453125 C -6.332031 -9.898438 -6.203125 -10.289062 -5.953125 -10.625 C -5.585938 -11.113281 -5.191406 -11.195312 -4.765625 -10.875 C -4.523438 -10.695312 -4.390625 -10.394531 -4.359375 -9.96875 C -4.335938 -9.539062 -4.441406 -9.171875 -4.671875 -8.859375 Z M 1.546875 -0.984375 C 1.179688 -0.503906 0.753906 -0.238281 0.265625 -0.1875 C -0.210938 -0.144531 -0.675781 -0.289062 -1.125 -0.625 C -1.582031 -0.96875 -2.101562 -1.5625 -2.6875 -2.40625 C -3.28125 -3.257812 -3.722656 -4.109375 -4.015625 -4.953125 C -4.316406 -5.796875 -4.316406 -6.414062 -4.015625 -6.8125 C -3.910156 -6.957031 -3.78125 -7.046875 -3.625 -7.078125 C -3.46875 -7.117188 -3.304688 -7.078125 -3.140625 -6.953125 C -3.035156 -6.878906 -2.925781 -6.726562 -2.8125 -6.5 C -2.707031 -6.269531 -2.5625 -5.929688 -2.375 -5.484375 C -2.050781 -4.660156 -1.734375 -3.96875 -1.421875 -3.40625 C -1.117188 -2.851562 -0.757812 -2.421875 -0.34375 -2.109375 C 0.0078125 -1.835938 0.296875 -1.71875 0.515625 -1.75 C 0.734375 -1.78125 0.941406 -1.929688 1.140625 -2.203125 C 1.816406 -3.097656 1.617188 -4.648438 0.546875 -6.859375 L 1 -6.90625 C 1.707031 -5.757812 2.109375 -4.664062 2.203125 -3.625 C 2.304688 -2.582031 2.085938 -1.703125 1.546875 -0.984375 Z M 1.546875 -0.984375 "/></g></g></g><g fill="#000000" fill-opacity="1"><g transform="translate(51.06929, 69.468807)"><g><path d="M 2.375 -1.21875 C 1.769531 -0.539062 1.117188 -0.179688 0.421875 -0.140625 C -0.273438 -0.0976562 -0.90625 -0.332031 -1.46875 -0.84375 C -2.09375 -1.394531 -2.578125 -2.203125 -2.921875 -3.265625 C -3.273438 -4.328125 -3.398438 -5.398438 -3.296875 -6.484375 C -3.203125 -7.566406 -2.875 -8.421875 -2.3125 -9.046875 C -2.007812 -9.378906 -1.675781 -9.582031 -1.3125 -9.65625 C -0.945312 -9.738281 -0.578125 -9.609375 -0.203125 -9.265625 C 0.304688 -8.804688 0.613281 -8.175781 0.71875 -7.375 C 0.820312 -6.570312 0.738281 -5.726562 0.46875 -4.84375 C 0.195312 -3.957031 -0.191406 -3.160156 -0.703125 -2.453125 C -0.609375 -2.335938 -0.492188 -2.21875 -0.359375 -2.09375 C -0.078125 -1.84375 0.269531 -1.664062 0.6875 -1.5625 C 1.101562 -1.46875 1.539062 -1.679688 2 -2.203125 C 2.582031 -2.847656 2.910156 -3.75 2.984375 -4.90625 C 3.054688 -6.0625 2.882812 -7.203125 2.46875 -8.328125 L 3.015625 -8.40625 C 3.597656 -7.125 3.828125 -5.816406 3.703125 -4.484375 C 3.578125 -3.160156 3.132812 -2.070312 2.375 -1.21875 Z M -1.140625 -3.15625 C -0.835938 -3.570312 -0.601562 -4.132812 -0.4375 -4.84375 C -0.28125 -5.5625 -0.25 -6.265625 -0.34375 -6.953125 C -0.445312 -7.640625 -0.6875 -8.148438 -1.0625 -8.484375 C -1.175781 -8.585938 -1.269531 -8.632812 -1.34375 -8.625 C -1.425781 -8.613281 -1.507812 -8.5625 -1.59375 -8.46875 C -1.875 -8.164062 -2.03125 -7.695312 -2.0625 -7.0625 C -2.101562 -6.425781 -2.035156 -5.75 -1.859375 -5.03125 C -1.679688 -4.320312 -1.441406 -3.695312 -1.140625 -3.15625 Z M -1.140625 -3.15625 "/></g></g></g><g fill="#000000" fill-opacity="1"><g transform="translate(58.599757, 61.337362)"><g><path d="M 2.09375 -0.609375 C 1.613281 -0.160156 1.109375 0.0507812 0.578125 0.03125 C 0.046875 0.0078125 -0.46875 -0.269531 -0.96875 -0.8125 C -1.351562 -1.226562 -1.765625 -1.828125 -2.203125 -2.609375 C -2.640625 -3.398438 -3.0625 -4.265625 -3.46875 -5.203125 C -3.789062 -5.003906 -4.019531 -4.882812 -4.15625 -4.84375 L -4.59375 -5.328125 C -4.320312 -5.535156 -4.050781 -5.742188 -3.78125 -5.953125 C -4.40625 -7.578125 -4.847656 -9.066406 -5.109375 -10.421875 C -5.367188 -11.773438 -5.332031 -12.609375 -5 -12.921875 C -4.882812 -13.023438 -4.738281 -13.078125 -4.5625 -13.078125 C -4.394531 -13.078125 -4.25 -13.007812 -4.125 -12.875 C -3.96875 -12.707031 -3.832031 -12.414062 -3.71875 -12 C -3.601562 -11.582031 -3.441406 -10.925781 -3.234375 -10.03125 C -2.960938 -8.820312 -2.710938 -7.835938 -2.484375 -7.078125 C -1.285156 -8.203125 -0.363281 -9.132812 0.28125 -9.875 L 0.78125 -9.34375 C -0.34375 -8.070312 -1.335938 -7.03125 -2.203125 -6.21875 C -1.554688 -4.414062 -0.847656 -3.101562 -0.078125 -2.28125 C 0.316406 -1.851562 0.664062 -1.613281 0.96875 -1.5625 C 1.269531 -1.507812 1.570312 -1.625 1.875 -1.90625 C 2.394531 -2.394531 2.707031 -3.128906 2.8125 -4.109375 C 2.914062 -5.097656 2.789062 -6.195312 2.4375 -7.40625 L 2.8125 -7.453125 C 3.289062 -6.085938 3.472656 -4.78125 3.359375 -3.53125 C 3.253906 -2.28125 2.832031 -1.304688 2.09375 -0.609375 Z M 2.09375 -0.609375 "/></g></g></g><g fill="#000000" fill-opacity="1"><g transform="translate(65.892669, 54.650835)"><g><path d="M 1.578125 0.078125 C 1.179688 0.378906 0.742188 0.5 0.265625 0.4375 C -0.203125 0.382812 -0.617188 0.125 -0.984375 -0.34375 C -1.492188 -1.007812 -1.820312 -1.9375 -1.96875 -3.125 C -2.113281 -4.320312 -2.023438 -5.488281 -1.703125 -6.625 C -1.378906 -7.769531 -0.84375 -8.628906 -0.09375 -9.203125 C 0.394531 -9.585938 0.90625 -9.78125 1.4375 -9.78125 C 1.976562 -9.789062 2.40625 -9.597656 2.71875 -9.203125 C 3.113281 -8.679688 2.992188 -8.160156 2.359375 -7.640625 C 2.867188 -7.828125 3.207031 -7.8125 3.375 -7.59375 C 3.4375 -7.507812 3.484375 -7.359375 3.515625 -7.140625 C 3.554688 -6.929688 3.59375 -6.703125 3.625 -6.453125 C 3.675781 -6.003906 3.734375 -5.628906 3.796875 -5.328125 C 3.867188 -5.023438 3.976562 -4.78125 4.125 -4.59375 C 4.25 -4.414062 4.398438 -4.300781 4.578125 -4.25 C 4.765625 -4.195312 4.941406 -4.238281 5.109375 -4.375 C 5.421875 -4.613281 5.65625 -5.144531 5.8125 -5.96875 C 5.96875 -6.800781 5.9375 -7.835938 5.71875 -9.078125 L 6.296875 -9 C 6.597656 -7.738281 6.65625 -6.578125 6.46875 -5.515625 C 6.28125 -4.460938 5.867188 -3.691406 5.234375 -3.203125 C 4.785156 -2.859375 4.320312 -2.742188 3.84375 -2.859375 C 3.375 -2.972656 2.992188 -3.222656 2.703125 -3.609375 C 2.660156 -2.597656 2.566406 -1.804688 2.421875 -1.234375 C 2.273438 -0.671875 1.992188 -0.234375 1.578125 0.078125 Z M 1.25 -1.09375 C 1.644531 -1.394531 1.890625 -2.035156 1.984375 -3.015625 C 2.078125 -3.992188 2.109375 -5.203125 2.078125 -6.640625 L 2.0625 -7.34375 C 2.039062 -7.425781 2.0625 -7.492188 2.125 -7.546875 L 2.21875 -7.578125 C 2.125 -7.804688 1.984375 -8.039062 1.796875 -8.28125 C 1.347656 -8.863281 0.890625 -8.972656 0.421875 -8.609375 C -0.078125 -8.222656 -0.394531 -7.554688 -0.53125 -6.609375 C -0.675781 -5.660156 -0.648438 -4.671875 -0.453125 -3.640625 C -0.253906 -2.617188 0.046875 -1.847656 0.453125 -1.328125 C 0.597656 -1.128906 0.734375 -1.015625 0.859375 -0.984375 C 0.984375 -0.953125 1.113281 -0.988281 1.25 -1.09375 Z M 1.25 -1.09375 "/></g></g></g><g fill="#000000" fill-opacity="1"><g transform="translate(76.575299, 46.798618)"><g/></g></g><g fill="#000000" fill-opacity="1"><g transform="translate(84.381816, 41.888811)"><g><path d="M 1.703125 1.265625 C 0.960938 1.234375 0.472656 0.972656 0.234375 0.484375 C -0.00390625 -0.00390625 -0.113281 -0.890625 -0.09375 -2.171875 C -0.0703125 -3.453125 0.0507812 -4.960938 0.28125 -6.703125 C -0.507812 -6.378906 -1.46875 -5.945312 -2.59375 -5.40625 C -2.6875 -6.394531 -2.140625 -7.175781 -0.953125 -7.75 C -0.691406 -7.875 -0.191406 -8.0625 0.546875 -8.3125 C 0.984375 -11.101562 1.484375 -13.519531 2.046875 -15.5625 C 2.617188 -17.601562 3.109375 -18.722656 3.515625 -18.921875 C 3.859375 -19.078125 4.421875 -19.03125 5.203125 -18.78125 C 5.035156 -18.46875 5.039062 -17.484375 5.21875 -15.828125 C 5.40625 -14.171875 5.710938 -12.40625 6.140625 -10.53125 C 6.566406 -8.664062 7.03125 -7.21875 7.53125 -6.1875 C 7.769531 -5.675781 8.003906 -5.316406 8.234375 -5.109375 C 8.472656 -4.910156 8.710938 -4.867188 8.953125 -4.984375 C 9.265625 -5.140625 9.523438 -5.554688 9.734375 -6.234375 C 9.953125 -6.910156 10.085938 -7.867188 10.140625 -9.109375 L 10.65625 -8.90625 C 10.769531 -7.613281 10.660156 -6.476562 10.328125 -5.5 C 10.003906 -4.519531 9.492188 -3.863281 8.796875 -3.53125 C 8.203125 -3.25 7.644531 -3.300781 7.125 -3.6875 C 6.613281 -4.070312 6.125 -4.753906 5.65625 -5.734375 C 5.351562 -6.359375 5.050781 -7.195312 4.75 -8.25 C 4.03125 -8.03125 3.050781 -7.707031 1.8125 -7.28125 C 1.625 -4.570312 1.585938 -1.722656 1.703125 1.265625 Z M 4.484375 -9.28125 C 4.203125 -10.476562 3.96875 -11.75 3.78125 -13.09375 C 3.601562 -14.445312 3.484375 -15.675781 3.421875 -16.78125 C 3.078125 -16.0625 2.769531 -14.992188 2.5 -13.578125 C 2.238281 -12.160156 2.039062 -10.53125 1.90625 -8.6875 L 3.484375 -9.078125 C 3.921875 -9.160156 4.253906 -9.226562 4.484375 -9.28125 Z M 4.484375 -9.28125 "/></g></g></g><g fill="#000000" fill-opacity="1"><g transform="translate(100.060006, 34.835018)"><g><path d="M 1.953125 0 C 1.367188 0.207031 0.867188 0.160156 0.453125 -0.140625 C 0.046875 -0.441406 -0.269531 -0.914062 -0.5 -1.5625 C -0.925781 -2.800781 -1.082031 -4.609375 -0.96875 -6.984375 C -0.863281 -9.367188 -0.570312 -11.570312 -0.09375 -13.59375 C 0.382812 -15.613281 0.875 -16.710938 1.375 -16.890625 C 1.601562 -16.972656 1.859375 -16.863281 2.140625 -16.5625 C 2.429688 -16.257812 2.644531 -15.925781 2.78125 -15.5625 C 3 -14.945312 3.070312 -13.953125 3 -12.578125 C 2.925781 -11.203125 2.675781 -9.75 2.25 -8.21875 C 1.832031 -6.695312 1.285156 -5.382812 0.609375 -4.28125 C 0.753906 -3.394531 0.898438 -2.734375 1.046875 -2.296875 C 1.210938 -1.828125 1.410156 -1.503906 1.640625 -1.328125 C 1.878906 -1.148438 2.132812 -1.113281 2.40625 -1.21875 C 2.882812 -1.382812 3.273438 -1.875 3.578125 -2.6875 C 3.890625 -3.507812 4.097656 -4.4375 4.203125 -5.46875 L 4.78125 -5.359375 C 4.632812 -3.929688 4.320312 -2.75 3.84375 -1.8125 C 3.363281 -0.875 2.734375 -0.269531 1.953125 0 Z M 0.5 -5.671875 C 0.96875 -6.722656 1.335938 -7.890625 1.609375 -9.171875 C 1.878906 -10.453125 2.039062 -11.628906 2.09375 -12.703125 C 2.144531 -13.785156 2.085938 -14.554688 1.921875 -15.015625 C 1.742188 -14.953125 1.535156 -14.414062 1.296875 -13.40625 C 1.054688 -12.394531 0.851562 -11.175781 0.6875 -9.75 C 0.53125 -8.320312 0.46875 -6.960938 0.5 -5.671875 Z M 0.5 -5.671875 "/></g></g></g><g fill="#000000" fill-opacity="1"><g transform="translate(108.627682, 31.952338)"><g><path d="M 2.65625 0.296875 C 1.78125 0.523438 1.039062 0.460938 0.4375 0.109375 C -0.164062 -0.234375 -0.5625 -0.773438 -0.75 -1.515625 C -0.957031 -2.316406 -0.914062 -3.253906 -0.625 -4.328125 C -0.332031 -5.410156 0.15625 -6.375 0.84375 -7.21875 C 1.53125 -8.070312 2.28125 -8.601562 3.09375 -8.8125 C 3.53125 -8.925781 3.921875 -8.910156 4.265625 -8.765625 C 4.617188 -8.628906 4.859375 -8.3125 4.984375 -7.8125 C 5.148438 -7.144531 5.050781 -6.453125 4.6875 -5.734375 C 4.332031 -5.015625 3.796875 -4.359375 3.078125 -3.765625 C 2.367188 -3.179688 1.601562 -2.738281 0.78125 -2.4375 C 0.78125 -2.28125 0.804688 -2.113281 0.859375 -1.9375 C 0.953125 -1.570312 1.144531 -1.234375 1.4375 -0.921875 C 1.726562 -0.617188 2.207031 -0.550781 2.875 -0.71875 C 3.71875 -0.9375 4.492188 -1.503906 5.203125 -2.421875 C 5.910156 -3.335938 6.40625 -4.378906 6.6875 -5.546875 L 7.171875 -5.3125 C 6.941406 -3.925781 6.40625 -2.710938 5.5625 -1.671875 C 4.726562 -0.640625 3.757812 0.015625 2.65625 0.296875 Z M 0.8125 -3.25 C 1.289062 -3.4375 1.789062 -3.78125 2.3125 -4.28125 C 2.84375 -4.789062 3.257812 -5.351562 3.5625 -5.96875 C 3.863281 -6.59375 3.953125 -7.148438 3.828125 -7.640625 C 3.785156 -7.785156 3.726562 -7.878906 3.65625 -7.921875 C 3.59375 -7.960938 3.5 -7.96875 3.375 -7.9375 C 2.976562 -7.832031 2.585938 -7.523438 2.203125 -7.015625 C 1.828125 -6.515625 1.507812 -5.914062 1.25 -5.21875 C 1 -4.53125 0.851562 -3.875 0.8125 -3.25 Z M 0.8125 -3.25 "/></g></g></g><g fill="#000000" fill-opacity="1"><g transform="translate(119.302172, 29.318862)"><g><path d="M 7.234375 -0.625 C 6.703125 -0.550781 6.265625 -0.628906 5.921875 -0.859375 C 5.578125 -1.085938 5.375 -1.414062 5.3125 -1.84375 C 5.28125 -2.03125 5.28125 -2.25 5.3125 -2.5 C 5.34375 -2.757812 5.375 -3.015625 5.40625 -3.265625 C 5.507812 -3.953125 5.535156 -4.445312 5.484375 -4.75 C 5.441406 -5.039062 5.335938 -5.242188 5.171875 -5.359375 C 5.015625 -5.472656 4.828125 -5.515625 4.609375 -5.484375 C 3.859375 -5.367188 3.171875 -4.78125 2.546875 -3.71875 C 1.929688 -2.664062 1.289062 -1.34375 0.625 0.25 C 0.0078125 0.332031 -0.476562 0.191406 -0.84375 -0.171875 L -0.75 -0.734375 C -0.207031 -2.890625 -0.0078125 -4.457031 -0.15625 -5.4375 C -0.0703125 -5.582031 0.0664062 -5.722656 0.265625 -5.859375 C 0.472656 -6.003906 0.675781 -6.09375 0.875 -6.125 C 1.113281 -6.15625 1.300781 -6.125 1.4375 -6.03125 C 1.582031 -5.9375 1.671875 -5.785156 1.703125 -5.578125 C 1.765625 -5.203125 1.738281 -4.554688 1.625 -3.640625 C 2.144531 -4.578125 2.707031 -5.367188 3.3125 -6.015625 C 3.914062 -6.660156 4.554688 -7.035156 5.234375 -7.140625 C 5.796875 -7.222656 6.257812 -7.085938 6.625 -6.734375 C 7 -6.390625 7.226562 -5.953125 7.3125 -5.421875 C 7.351562 -5.109375 7.351562 -4.800781 7.3125 -4.5 C 7.28125 -4.207031 7.210938 -3.867188 7.109375 -3.484375 C 6.960938 -2.859375 6.910156 -2.394531 6.953125 -2.09375 C 6.984375 -1.882812 7.054688 -1.738281 7.171875 -1.65625 C 7.285156 -1.570312 7.414062 -1.546875 7.5625 -1.578125 C 8.019531 -1.640625 8.472656 -2.03125 8.921875 -2.75 C 9.367188 -3.476562 9.753906 -4.3125 10.078125 -5.25 L 10.484375 -5.03125 C 10.148438 -3.769531 9.722656 -2.75 9.203125 -1.96875 C 8.679688 -1.195312 8.023438 -0.75 7.234375 -0.625 Z M 7.234375 -0.625 "/></g></g></g><g fill="#000000" fill-opacity="1"><g transform="translate(132.954323, 27.504783)"><g><path d="M 6.859375 0.59375 C 6.296875 0.613281 5.8125 0.40625 5.40625 -0.03125 C 5 -0.46875 4.691406 -1 4.484375 -1.625 C 4.285156 -2.257812 4.175781 -2.828125 4.15625 -3.328125 C 5.988281 -3.804688 6.890625 -4.472656 6.859375 -5.328125 C 6.859375 -5.585938 6.773438 -5.789062 6.609375 -5.9375 C 6.441406 -6.09375 6.207031 -6.164062 5.90625 -6.15625 C 5.03125 -6.125 4.273438 -5.539062 3.640625 -4.40625 C 3.015625 -3.28125 2.445312 -1.976562 1.9375 -0.5 C 1.789062 -0.0625 1.648438 0.234375 1.515625 0.390625 C 1.378906 0.546875 1.171875 0.628906 0.890625 0.640625 C 0.660156 0.648438 0.460938 0.554688 0.296875 0.359375 C 0.128906 0.160156 0.0351562 -0.273438 0.015625 -0.953125 C -0.0351562 -2.597656 0.320312 -4.566406 1.09375 -6.859375 C 1.863281 -9.160156 2.765625 -11.179688 3.796875 -12.921875 C 4.835938 -14.660156 5.644531 -15.539062 6.21875 -15.5625 C 6.457031 -15.570312 6.664062 -15.429688 6.84375 -15.140625 C 7.019531 -14.847656 7.113281 -14.484375 7.125 -14.046875 C 7.144531 -13.398438 6.976562 -12.648438 6.625 -11.796875 C 6.28125 -10.941406 5.773438 -10.113281 5.109375 -9.3125 C 4.453125 -8.519531 3.710938 -7.859375 2.890625 -7.328125 C 2.546875 -6.421875 2.269531 -5.507812 2.0625 -4.59375 C 1.863281 -3.675781 1.75 -2.847656 1.71875 -2.109375 C 3.15625 -5.710938 4.691406 -7.539062 6.328125 -7.59375 C 6.898438 -7.601562 7.40625 -7.410156 7.84375 -7.015625 C 8.289062 -6.628906 8.523438 -6.140625 8.546875 -5.546875 C 8.566406 -5.015625 8.398438 -4.550781 8.046875 -4.15625 C 7.703125 -3.769531 7.285156 -3.472656 6.796875 -3.265625 C 6.316406 -3.054688 5.890625 -2.941406 5.515625 -2.921875 C 5.679688 -2.265625 5.898438 -1.6875 6.171875 -1.1875 C 6.441406 -0.6875 6.820312 -0.441406 7.3125 -0.453125 C 7.832031 -0.472656 8.363281 -0.832031 8.90625 -1.53125 C 9.457031 -2.226562 9.953125 -3.109375 10.390625 -4.171875 L 10.71875 -3.8125 C 10.34375 -2.632812 9.796875 -1.613281 9.078125 -0.75 C 8.367188 0.113281 7.628906 0.5625 6.859375 0.59375 Z M 3.46875 -8.8125 C 4.144531 -9.457031 4.757812 -10.222656 5.3125 -11.109375 C 5.875 -11.992188 6.144531 -12.8125 6.125 -13.5625 C 5.90625 -13.445312 5.53125 -12.925781 5 -12 C 4.46875 -11.082031 3.957031 -10.019531 3.46875 -8.8125 Z M 3.46875 -8.8125 "/></g></g></g><g fill="#000000" fill-opacity="1"><g transform="translate(146.501877, 27.280213)"><g><path d="M 1.125 1.109375 C 0.625 1.066406 0.21875 0.863281 -0.09375 0.5 C -0.40625 0.144531 -0.539062 -0.328125 -0.5 -0.921875 C -0.425781 -1.753906 -0.046875 -2.660156 0.640625 -3.640625 C 1.335938 -4.617188 2.1875 -5.425781 3.1875 -6.0625 C 4.1875 -6.695312 5.160156 -6.976562 6.109375 -6.90625 C 6.734375 -6.851562 7.242188 -6.648438 7.640625 -6.296875 C 8.035156 -5.941406 8.210938 -5.515625 8.171875 -5.015625 C 8.117188 -4.359375 7.6875 -4.050781 6.875 -4.09375 C 7.375 -3.894531 7.609375 -3.660156 7.578125 -3.390625 C 7.578125 -3.285156 7.519531 -3.132812 7.40625 -2.9375 C 7.300781 -2.75 7.171875 -2.550781 7.015625 -2.34375 C 6.753906 -2 6.546875 -1.691406 6.390625 -1.421875 C 6.242188 -1.148438 6.160156 -0.894531 6.140625 -0.65625 C 6.117188 -0.4375 6.15625 -0.242188 6.25 -0.078125 C 6.351562 0.078125 6.515625 0.164062 6.734375 0.1875 C 7.117188 0.21875 7.644531 -0.0195312 8.3125 -0.53125 C 8.988281 -1.050781 9.660156 -1.835938 10.328125 -2.890625 L 10.71875 -2.453125 C 10.09375 -1.316406 9.351562 -0.421875 8.5 0.234375 C 7.65625 0.898438 6.835938 1.195312 6.046875 1.125 C 5.472656 1.082031 5.046875 0.859375 4.765625 0.453125 C 4.492188 0.046875 4.375 -0.394531 4.40625 -0.875 C 3.695312 -0.15625 3.101562 0.363281 2.625 0.6875 C 2.144531 1.007812 1.644531 1.148438 1.125 1.109375 Z M 1.65625 0.046875 C 2.15625 0.078125 2.765625 -0.238281 3.484375 -0.90625 C 4.210938 -1.570312 5.050781 -2.445312 6 -3.53125 L 6.46875 -4.078125 C 6.507812 -4.140625 6.566406 -4.171875 6.640625 -4.171875 L 6.734375 -4.140625 C 6.816406 -4.367188 6.867188 -4.632812 6.890625 -4.9375 C 6.953125 -5.675781 6.6875 -6.066406 6.09375 -6.109375 C 5.457031 -6.160156 4.765625 -5.878906 4.015625 -5.265625 C 3.273438 -4.648438 2.632812 -3.894531 2.09375 -3 C 1.5625 -2.113281 1.269531 -1.34375 1.21875 -0.6875 C 1.195312 -0.4375 1.222656 -0.253906 1.296875 -0.140625 C 1.367188 -0.0351562 1.488281 0.0234375 1.65625 0.046875 Z M 1.65625 0.046875 "/></g></g></g><g fill="#000000" fill-opacity="1"><g transform="translate(159.693111, 28.613726)"><g/></g></g><g fill="#000000" fill-opacity="1"><g transform="translate(168.806909, 30.264914)"><g><path d="M 4.3125 3.171875 C 2.988281 2.796875 2.460938 2.070312 2.734375 1 C 2.835938 0.644531 3.023438 0.242188 3.296875 -0.203125 C 3.566406 -0.660156 3.910156 -1.207031 4.328125 -1.84375 C 5.179688 -3.070312 6.050781 -4.253906 6.9375 -5.390625 C 7.820312 -6.535156 8.898438 -7.898438 10.171875 -9.484375 L 11.421875 -11.03125 C 10.054688 -11.40625 8.929688 -11.675781 8.046875 -11.84375 C 7.160156 -12.019531 6.21875 -12.160156 5.21875 -12.265625 C 5.539062 -13.054688 6.210938 -13.472656 7.234375 -13.515625 C 8.253906 -13.566406 9.617188 -13.347656 11.328125 -12.859375 C 12.429688 -12.546875 13.789062 -12.066406 15.40625 -11.421875 C 16.8125 -10.867188 17.851562 -10.5 18.53125 -10.3125 C 17.832031 -9.945312 17.003906 -9.820312 16.046875 -9.9375 C 15.085938 -10.0625 13.96875 -10.304688 12.6875 -10.671875 C 10.75 -8.210938 8.648438 -5.109375 6.390625 -1.359375 C 5.734375 -0.285156 5.28125 0.488281 5.03125 0.96875 C 4.789062 1.445312 4.585938 1.976562 4.421875 2.5625 C 4.367188 2.75 4.332031 2.953125 4.3125 3.171875 Z M 4.3125 3.171875 "/></g></g></g><g fill="#000000" fill-opacity="1"><g transform="translate(183.353925, 34.758595)"><g><path d="M 3.46875 2.03125 C 2.976562 1.832031 2.628906 1.535156 2.421875 1.140625 C 2.222656 0.753906 2.210938 0.347656 2.390625 -0.078125 C 2.492188 -0.335938 2.660156 -0.59375 2.890625 -0.84375 C 3.117188 -1.101562 3.421875 -1.40625 3.796875 -1.75 C 4.117188 -2.039062 4.378906 -2.296875 4.578125 -2.515625 C 4.773438 -2.734375 4.914062 -2.941406 5 -3.140625 C 5.207031 -3.648438 5.054688 -4.21875 4.546875 -4.84375 C 4.003906 -4.28125 3.414062 -3.734375 2.78125 -3.203125 C 2.144531 -2.671875 1.59375 -2.226562 1.125 -1.875 L 1.0625 -2.578125 C 2.113281 -3.421875 3.148438 -4.398438 4.171875 -5.515625 C 4.097656 -5.710938 4.109375 -5.921875 4.203125 -6.140625 C 4.335938 -6.484375 4.570312 -6.765625 4.90625 -6.984375 C 5.25 -7.203125 5.519531 -7.269531 5.71875 -7.1875 C 5.851562 -7.132812 5.925781 -7.007812 5.9375 -6.8125 C 5.957031 -6.625 5.945312 -6.476562 5.90625 -6.375 C 5.882812 -6.3125 5.804688 -6.203125 5.671875 -6.046875 C 5.535156 -5.898438 5.4375 -5.789062 5.375 -5.71875 C 5.351562 -5.613281 5.375 -5.5 5.4375 -5.375 C 5.5 -5.257812 5.617188 -5.066406 5.796875 -4.796875 C 6.128906 -4.296875 6.367188 -3.851562 6.515625 -3.46875 C 6.660156 -3.082031 6.632812 -2.644531 6.4375 -2.15625 C 6.3125 -1.875 6.140625 -1.601562 5.921875 -1.34375 C 5.703125 -1.09375 5.40625 -0.804688 5.03125 -0.484375 C 4.507812 -0.015625 4.195312 0.34375 4.09375 0.59375 C 3.96875 0.894531 4.070312 1.113281 4.40625 1.25 C 4.800781 1.414062 5.296875 1.4375 5.890625 1.3125 C 6.492188 1.1875 7.082031 0.976562 7.65625 0.6875 C 8.238281 0.394531 8.707031 0.0859375 9.0625 -0.234375 L 9.390625 0.3125 C 8.878906 0.800781 8.273438 1.21875 7.578125 1.5625 C 6.878906 1.914062 6.160156 2.140625 5.421875 2.234375 C 4.679688 2.335938 4.03125 2.269531 3.46875 2.03125 Z M 3.46875 2.03125 "/></g></g></g><g fill="#000000" fill-opacity="1"><g transform="translate(193.898987, 39.270982)"><g><path d="M 0.578125 1.46875 C 0.140625 1.226562 -0.144531 0.878906 -0.28125 0.421875 C -0.425781 -0.0234375 -0.359375 -0.507812 -0.078125 -1.03125 C 0.316406 -1.769531 1.023438 -2.445312 2.046875 -3.0625 C 3.078125 -3.6875 4.179688 -4.085938 5.359375 -4.265625 C 6.535156 -4.441406 7.539062 -4.304688 8.375 -3.859375 C 8.925781 -3.554688 9.3125 -3.160156 9.53125 -2.671875 C 9.75 -2.191406 9.738281 -1.726562 9.5 -1.28125 C 9.1875 -0.707031 8.664062 -0.601562 7.9375 -0.96875 C 8.320312 -0.582031 8.445312 -0.269531 8.3125 -0.03125 C 8.269531 0.0625 8.15625 0.171875 7.96875 0.296875 C 7.78125 0.421875 7.578125 0.546875 7.359375 0.671875 C 6.972656 0.898438 6.65625 1.109375 6.40625 1.296875 C 6.164062 1.484375 5.988281 1.679688 5.875 1.890625 C 5.769531 2.078125 5.726562 2.265625 5.75 2.453125 C 5.78125 2.640625 5.890625 2.785156 6.078125 2.890625 C 6.429688 3.078125 7.015625 3.070312 7.828125 2.875 C 8.640625 2.675781 9.566406 2.222656 10.609375 1.515625 L 10.796875 2.078125 C 9.765625 2.867188 8.726562 3.394531 7.6875 3.65625 C 6.644531 3.914062 5.769531 3.851562 5.0625 3.46875 C 4.5625 3.195312 4.265625 2.820312 4.171875 2.34375 C 4.085938 1.863281 4.160156 1.410156 4.390625 0.984375 C 3.453125 1.347656 2.695312 1.578125 2.125 1.671875 C 1.550781 1.773438 1.035156 1.707031 0.578125 1.46875 Z M 1.5 0.703125 C 1.9375 0.941406 2.617188 0.898438 3.546875 0.578125 C 4.484375 0.253906 5.601562 -0.207031 6.90625 -0.8125 L 7.546875 -1.125 C 7.617188 -1.164062 7.691406 -1.171875 7.765625 -1.140625 L 7.828125 -1.078125 C 7.992188 -1.242188 8.148438 -1.460938 8.296875 -1.734375 C 8.640625 -2.378906 8.550781 -2.84375 8.03125 -3.125 C 7.46875 -3.425781 6.722656 -3.445312 5.796875 -3.1875 C 4.878906 -2.925781 3.992188 -2.492188 3.140625 -1.890625 C 2.285156 -1.296875 1.703125 -0.710938 1.390625 -0.140625 C 1.265625 0.078125 1.210938 0.253906 1.234375 0.390625 C 1.265625 0.523438 1.351562 0.628906 1.5 0.703125 Z M 1.5 0.703125 "/></g></g></g><g fill="#000000" fill-opacity="1"><g transform="translate(205.410262, 45.778403)"><g><path d="M 1.34375 2.375 C 0.695312 1.9375 0.3125 1.382812 0.1875 0.71875 C 0.0703125 0.0625 0.28125 -0.65625 0.8125 -1.4375 C 1.332031 -2.195312 2.03125 -2.800781 2.90625 -3.25 C 3.78125 -3.707031 4.675781 -3.953125 5.59375 -3.984375 C 6.519531 -4.015625 7.300781 -3.816406 7.9375 -3.390625 C 8.414062 -3.054688 8.6875 -2.695312 8.75 -2.3125 C 8.820312 -1.925781 8.738281 -1.554688 8.5 -1.203125 C 8.257812 -0.847656 7.945312 -0.570312 7.5625 -0.375 C 7.1875 -0.1875 6.875 -0.175781 6.625 -0.34375 C 6.394531 -0.5 6.289062 -0.742188 6.3125 -1.078125 C 6.507812 -1.078125 6.75 -1.148438 7.03125 -1.296875 C 7.3125 -1.453125 7.5625 -1.691406 7.78125 -2.015625 C 7.914062 -2.210938 7.875 -2.390625 7.65625 -2.546875 C 7.269531 -2.804688 6.703125 -2.859375 5.953125 -2.703125 C 5.210938 -2.554688 4.472656 -2.265625 3.734375 -1.828125 C 3.003906 -1.390625 2.460938 -0.90625 2.109375 -0.375 C 1.847656 0 1.722656 0.378906 1.734375 0.765625 C 1.753906 1.148438 2 1.5 2.46875 1.8125 C 2.914062 2.125 3.472656 2.3125 4.140625 2.375 C 4.804688 2.445312 5.515625 2.390625 6.265625 2.203125 C 7.023438 2.015625 7.742188 1.691406 8.421875 1.234375 L 8.5625 1.796875 C 7.800781 2.316406 6.972656 2.6875 6.078125 2.90625 C 5.179688 3.132812 4.3125 3.203125 3.46875 3.109375 C 2.632812 3.015625 1.925781 2.769531 1.34375 2.375 Z M 1.34375 2.375 "/></g></g></g><g fill="#000000" fill-opacity="1"><g transform="translate(214.295644, 51.947179)"><g><path d="M 0.21875 1.265625 C -0.0078125 1.066406 -0.03125 0.75 0.15625 0.3125 C 0.34375 -0.125 0.664062 -0.613281 1.125 -1.15625 C 1.957031 -2.132812 3.398438 -3.207031 5.453125 -4.375 C 7.503906 -5.550781 9.488281 -6.457031 11.40625 -7.09375 C 13.320312 -7.726562 14.53125 -7.832031 15.03125 -7.40625 C 15.238281 -7.21875 15.304688 -6.953125 15.234375 -6.609375 C 15.160156 -6.265625 14.992188 -5.941406 14.734375 -5.640625 C 14.316406 -5.140625 13.566406 -4.617188 12.484375 -4.078125 C 11.398438 -3.546875 10.226562 -3.140625 8.96875 -2.859375 C 7.707031 -2.585938 6.601562 -2.535156 5.65625 -2.703125 C 4.445312 -2.035156 3.46875 -1.265625 2.71875 -0.390625 L 2.453125 -0.046875 C 2.492188 -0.0546875 2.648438 -0.128906 2.921875 -0.265625 C 3.609375 -0.648438 4.269531 -0.96875 4.90625 -1.21875 C 5.539062 -1.476562 6.234375 -1.628906 6.984375 -1.671875 C 7.742188 -1.710938 8.398438 -1.5 8.953125 -1.03125 C 9.460938 -0.59375 9.695312 -0.117188 9.65625 0.390625 C 9.613281 0.910156 9.40625 1.390625 9.03125 1.828125 C 8.820312 2.078125 8.585938 2.28125 8.328125 2.4375 C 8.078125 2.601562 7.742188 2.796875 7.328125 3.015625 C 7.273438 3.054688 7.148438 3.128906 6.953125 3.234375 C 6.753906 3.335938 6.585938 3.441406 6.453125 3.546875 C 6.316406 3.660156 6.210938 3.765625 6.140625 3.859375 C 5.835938 4.203125 5.832031 4.5 6.125 4.75 C 6.363281 4.945312 6.75 5.066406 7.28125 5.109375 C 7.820312 5.148438 8.421875 5.097656 9.078125 4.953125 C 9.742188 4.816406 10.390625 4.613281 11.015625 4.34375 L 11.03125 4.84375 C 9.863281 5.394531 8.757812 5.707031 7.71875 5.78125 C 6.675781 5.851562 5.828125 5.609375 5.171875 5.046875 C 4.765625 4.703125 4.539062 4.328125 4.5 3.921875 C 4.457031 3.523438 4.578125 3.160156 4.859375 2.828125 C 5.046875 2.609375 5.453125 2.273438 6.078125 1.828125 C 6.703125 1.441406 7.125 1.113281 7.34375 0.84375 C 7.738281 0.382812 7.738281 -0.015625 7.34375 -0.359375 C 6.957031 -0.679688 6.453125 -0.75 5.828125 -0.5625 C 5.210938 -0.382812 4.398438 -0.0351562 3.390625 0.484375 C 2.535156 0.921875 1.863281 1.21875 1.375 1.375 C 0.882812 1.53125 0.5 1.492188 0.21875 1.265625 Z M 6.890625 -3.453125 C 7.679688 -3.484375 8.554688 -3.644531 9.515625 -3.9375 C 10.484375 -4.226562 11.351562 -4.566406 12.125 -4.953125 C 12.90625 -5.335938 13.40625 -5.660156 13.625 -5.921875 C 13.445312 -5.984375 12.988281 -5.914062 12.25 -5.71875 C 11.507812 -5.53125 10.648438 -5.238281 9.671875 -4.84375 C 8.691406 -4.445312 7.765625 -3.984375 6.890625 -3.453125 Z M 6.890625 -3.453125 "/></g></g></g><g fill="#000000" fill-opacity="1"><g transform="translate(225.001192, 61.420414)"><g><path d="M 0.65625 2.09375 C 0.195312 1.625 -0.0234375 1.117188 -0.015625 0.578125 C -0.00390625 0.046875 0.265625 -0.472656 0.796875 -0.984375 C 1.203125 -1.378906 1.796875 -1.796875 2.578125 -2.234375 C 3.359375 -2.679688 4.222656 -3.113281 5.171875 -3.53125 C 4.960938 -3.851562 4.832031 -4.082031 4.78125 -4.21875 L 5.25 -4.671875 C 5.46875 -4.390625 5.679688 -4.113281 5.890625 -3.84375 C 7.515625 -4.507812 9.003906 -4.976562 10.359375 -5.25 C 11.710938 -5.519531 12.546875 -5.492188 12.859375 -5.171875 C 12.960938 -5.054688 13.015625 -4.910156 13.015625 -4.734375 C 13.015625 -4.566406 12.945312 -4.421875 12.8125 -4.296875 C 12.644531 -4.140625 12.351562 -4 11.9375 -3.875 C 11.53125 -3.75 10.882812 -3.578125 10 -3.359375 C 8.78125 -3.078125 7.796875 -2.816406 7.046875 -2.578125 C 8.179688 -1.390625 9.125 -0.476562 9.875 0.15625 L 9.359375 0.65625 C 8.054688 -0.457031 6.992188 -1.441406 6.171875 -2.296875 C 4.390625 -1.617188 3.09375 -0.890625 2.28125 -0.109375 C 1.863281 0.296875 1.628906 0.648438 1.578125 0.953125 C 1.523438 1.253906 1.640625 1.550781 1.921875 1.84375 C 2.421875 2.363281 3.164062 2.671875 4.15625 2.765625 C 5.144531 2.859375 6.238281 2.71875 7.4375 2.34375 L 7.5 2.703125 C 6.132812 3.203125 4.828125 3.40625 3.578125 3.3125 C 2.328125 3.226562 1.351562 2.820312 0.65625 2.09375 Z M 0.65625 2.09375 "/></g></g></g><g fill="#000000" fill-opacity="1"><g transform="translate(231.785215, 68.622673)"><g><path d="M -0.046875 1.5625 C -0.359375 1.175781 -0.488281 0.75 -0.4375 0.28125 C -0.382812 -0.1875 -0.125 -0.609375 0.34375 -0.984375 C 1 -1.492188 1.921875 -1.828125 3.109375 -1.984375 C 4.296875 -2.148438 5.460938 -2.082031 6.609375 -1.78125 C 7.765625 -1.476562 8.632812 -0.957031 9.21875 -0.21875 C 9.601562 0.269531 9.800781 0.78125 9.8125 1.3125 C 9.820312 1.84375 9.628906 2.265625 9.234375 2.578125 C 8.722656 2.984375 8.195312 2.875 7.65625 2.25 C 7.863281 2.757812 7.859375 3.097656 7.640625 3.265625 C 7.554688 3.328125 7.40625 3.378906 7.1875 3.421875 C 6.976562 3.472656 6.742188 3.515625 6.484375 3.546875 C 6.054688 3.585938 5.6875 3.644531 5.375 3.71875 C 5.070312 3.800781 4.828125 3.914062 4.640625 4.0625 C 4.472656 4.195312 4.363281 4.351562 4.3125 4.53125 C 4.257812 4.707031 4.300781 4.882812 4.4375 5.0625 C 4.6875 5.363281 5.222656 5.585938 6.046875 5.734375 C 6.878906 5.878906 7.914062 5.835938 9.15625 5.609375 L 9.078125 6.1875 C 7.828125 6.5 6.671875 6.566406 5.609375 6.390625 C 4.554688 6.210938 3.78125 5.8125 3.28125 5.1875 C 2.925781 4.738281 2.800781 4.273438 2.90625 3.796875 C 3.019531 3.328125 3.265625 2.945312 3.640625 2.65625 C 2.628906 2.625 1.84375 2.535156 1.28125 2.390625 C 0.71875 2.253906 0.273438 1.976562 -0.046875 1.5625 Z M 1.109375 1.234375 C 1.410156 1.628906 2.050781 1.863281 3.03125 1.9375 C 4.019531 2.007812 5.226562 2.023438 6.65625 1.984375 L 7.375 1.96875 C 7.46875 1.945312 7.535156 1.96875 7.578125 2.03125 L 7.625 2.109375 C 7.832031 2.015625 8.054688 1.875 8.296875 1.6875 C 8.878906 1.226562 8.988281 0.765625 8.625 0.296875 C 8.226562 -0.203125 7.550781 -0.507812 6.59375 -0.625 C 5.644531 -0.75 4.660156 -0.707031 3.640625 -0.5 C 2.617188 -0.289062 1.847656 0.015625 1.328125 0.421875 C 1.128906 0.578125 1.015625 0.71875 0.984375 0.84375 C 0.960938 0.976562 1.003906 1.109375 1.109375 1.234375 Z M 1.109375 1.234375 "/></g></g></g><g fill="#000000" fill-opacity="1"><g transform="translate(239.781592, 79.197255)"><g/></g></g><g fill="#000000" fill-opacity="1"><g transform="translate(244.800787, 86.922579)"><g><path d="M 0.625 5.5 C 0.25 4.738281 0.101562 3.953125 0.1875 3.140625 C 0.28125 2.335938 0.601562 1.570312 1.15625 0.84375 C 1.707031 0.125 2.476562 -0.472656 3.46875 -0.953125 C 5.082031 -1.753906 6.925781 -2.15625 9 -2.15625 C 11.082031 -2.164062 12.988281 -1.785156 14.71875 -1.015625 C 16.457031 -0.242188 17.671875 0.828125 18.359375 2.203125 C 18.617188 2.734375 18.648438 3.257812 18.453125 3.78125 C 18.378906 3.570312 18.300781 3.378906 18.21875 3.203125 C 17.675781 2.117188 16.585938 1.28125 14.953125 0.6875 C 13.316406 0.101562 11.507812 -0.148438 9.53125 -0.078125 C 7.550781 -0.015625 5.820312 0.378906 4.34375 1.109375 C 3.238281 1.660156 2.4375 2.332031 1.9375 3.125 C 1.445312 3.925781 1.429688 4.789062 1.890625 5.71875 C 2.441406 6.832031 3.484375 7.585938 5.015625 7.984375 C 6.546875 8.390625 8.234375 8.46875 10.078125 8.21875 C 11.929688 7.976562 13.578125 7.503906 15.015625 6.796875 C 15.722656 6.441406 16.328125 6.050781 16.828125 5.625 C 17.335938 5.207031 17.519531 4.84375 17.375 4.53125 C 17.238281 4.257812 16.851562 4.0625 16.21875 3.9375 C 15.582031 3.820312 14.867188 3.769531 14.078125 3.78125 C 13.296875 3.800781 12.617188 3.890625 12.046875 4.046875 C 11.816406 3.148438 11.992188 2.5625 12.578125 2.28125 C 13.023438 2.0625 13.648438 2.015625 14.453125 2.140625 C 15.253906 2.265625 16.015625 2.519531 16.734375 2.90625 C 17.453125 3.289062 17.929688 3.722656 18.171875 4.203125 C 18.503906 4.878906 18.304688 5.566406 17.578125 6.265625 C 16.859375 6.960938 15.941406 7.582031 14.828125 8.125 C 12.765625 9.144531 10.742188 9.640625 8.765625 9.609375 C 6.796875 9.578125 5.085938 9.171875 3.640625 8.390625 C 2.191406 7.609375 1.1875 6.644531 0.625 5.5 Z M 0.625 5.5 "/></g></g></g><g fill="#000000" fill-opacity="1"><g transform="translate(252.235831, 102.98011)"><g><path d="M 0.328125 1.53125 C 0.210938 1.238281 0.207031 0.988281 0.3125 0.78125 C 0.414062 0.582031 0.570312 0.445312 0.78125 0.375 C 1 0.289062 1.28125 0.347656 1.625 0.546875 C 1.976562 0.742188 2.207031 0.976562 2.3125 1.25 C 2.375 1.414062 2.378906 1.585938 2.328125 1.765625 C 2.273438 1.941406 2.140625 2.070312 1.921875 2.15625 C 1.796875 2.195312 1.617188 2.207031 1.390625 2.1875 C 1.171875 2.164062 0.957031 2.101562 0.75 2 C 0.539062 1.90625 0.398438 1.75 0.328125 1.53125 Z M 0.328125 1.53125 "/></g></g></g><g fill="#000000" fill-opacity="1"><g transform="translate(35.775927, 207.525165)"><g><path d="M 0.609375 0.953125 L 8.4375 -4.09375 L 9.578125 -2.328125 L 3.421875 1.640625 L 5.625 5.078125 L 3.953125 6.15625 Z M 0.609375 0.953125 "/></g></g></g><g fill="#000000" fill-opacity="1"><g transform="translate(41.642757, 216.334917)"><g><path d="M 0.671875 0.90625 L 8.125 -4.6875 L 9.390625 -3 L 1.9375 2.59375 Z M 0.671875 0.90625 "/></g></g></g><g fill="#000000" fill-opacity="1"><g transform="translate(46.036968, 222.202458)"><g><path d="M 3.453125 4.140625 C 2.828125 3.441406 2.425781 2.679688 2.25 1.859375 C 2.070312 1.046875 2.117188 0.25 2.390625 -0.53125 C 2.660156 -1.320312 3.148438 -2.03125 3.859375 -2.65625 C 4.566406 -3.289062 5.328125 -3.695312 6.140625 -3.875 C 6.960938 -4.0625 7.765625 -4.023438 8.546875 -3.765625 C 9.335938 -3.503906 10.046875 -3.019531 10.671875 -2.3125 C 11.203125 -1.726562 11.570312 -1.085938 11.78125 -0.390625 C 11.988281 0.296875 12.035156 0.988281 11.921875 1.6875 C 11.816406 2.382812 11.539062 3.050781 11.09375 3.6875 L 9.640625 2.0625 C 9.921875 1.570312 10.019531 1.0625 9.9375 0.53125 C 9.851562 0 9.613281 -0.488281 9.21875 -0.9375 C 8.863281 -1.332031 8.460938 -1.601562 8.015625 -1.75 C 7.566406 -1.894531 7.109375 -1.90625 6.640625 -1.78125 C 6.171875 -1.664062 5.722656 -1.421875 5.296875 -1.046875 C 4.890625 -0.679688 4.601562 -0.273438 4.4375 0.171875 C 4.269531 0.617188 4.226562 1.078125 4.3125 1.546875 C 4.40625 2.015625 4.628906 2.445312 4.984375 2.84375 C 5.378906 3.289062 5.847656 3.582031 6.390625 3.71875 C 6.941406 3.851562 7.476562 3.816406 8 3.609375 L 9.453125 5.234375 C 8.796875 5.628906 8.109375 5.84375 7.390625 5.875 C 6.671875 5.914062 5.96875 5.789062 5.28125 5.5 C 4.601562 5.207031 3.992188 4.753906 3.453125 4.140625 Z M 3.453125 4.140625 "/></g></g></g><g fill="#000000" fill-opacity="1"><g transform="translate(55.371427, 232.327823)"><g><path d="M 0.828125 0.765625 L 7.125 -6.09375 L 11.625 -1.96875 L 10.421875 -0.65625 L 7.46875 -3.375 L 6.171875 -1.96875 L 8.859375 0.5 L 7.65625 1.8125 L 4.96875 -0.65625 L 3.59375 0.84375 L 6.671875 3.671875 L 5.453125 5 Z M 0.828125 0.765625 "/></g></g></g><g fill="#000000" fill-opacity="1"><g transform="translate(63.614501, 239.755098)"><g><path d="M 0.90625 0.671875 L 6.5 -6.78125 L 7.9375 -5.703125 L 7.8125 1.3125 L 11.21875 -3.234375 L 12.890625 -1.984375 L 7.296875 5.46875 L 5.859375 4.390625 L 6.015625 -2.640625 L 2.578125 1.9375 Z M 0.90625 0.671875 "/></g></g></g><g fill="#000000" fill-opacity="1"><g transform="translate(74.363201, 247.624572)"><g><path d="M 4.546875 2.90625 C 3.734375 2.425781 3.117188 1.820312 2.703125 1.09375 C 2.285156 0.375 2.085938 -0.398438 2.109375 -1.234375 C 2.128906 -2.066406 2.382812 -2.890625 2.875 -3.703125 C 3.351562 -4.523438 3.953125 -5.144531 4.671875 -5.5625 C 5.390625 -5.976562 6.164062 -6.179688 7 -6.171875 C 7.84375 -6.160156 8.664062 -5.914062 9.46875 -5.4375 C 10.144531 -5.03125 10.6875 -4.53125 11.09375 -3.9375 C 11.507812 -3.34375 11.769531 -2.695312 11.875 -2 C 11.988281 -1.300781 11.929688 -0.585938 11.703125 0.140625 L 9.8125 -0.96875 C 9.914062 -1.507812 9.847656 -2.019531 9.609375 -2.5 C 9.378906 -2.976562 9.007812 -3.375 8.5 -3.6875 C 8.039062 -3.945312 7.570312 -4.078125 7.09375 -4.078125 C 6.625 -4.085938 6.179688 -3.96875 5.765625 -3.71875 C 5.359375 -3.46875 5.015625 -3.097656 4.734375 -2.609375 C 4.453125 -2.140625 4.296875 -1.660156 4.265625 -1.171875 C 4.242188 -0.679688 4.347656 -0.234375 4.578125 0.171875 C 4.816406 0.578125 5.164062 0.914062 5.625 1.1875 C 6.132812 1.5 6.664062 1.640625 7.21875 1.609375 C 7.78125 1.578125 8.28125 1.382812 8.71875 1.03125 L 10.59375 2.125 C 10.082031 2.695312 9.488281 3.109375 8.8125 3.359375 C 8.132812 3.617188 7.425781 3.707031 6.6875 3.625 C 5.957031 3.550781 5.242188 3.3125 4.546875 2.90625 Z M 4.546875 2.90625 "/></g></g></g><g fill="#000000" fill-opacity="1"><g transform="translate(86.291545, 254.378049)"><g><path d="M 1.015625 0.484375 L 5.0625 -7.90625 L 6.953125 -6.984375 L 2.90625 1.40625 Z M 1.015625 0.484375 "/></g></g></g><g fill="#000000" fill-opacity="1"><g transform="translate(92.883114, 257.542692)"><g><path d="M 0.109375 0.046875 L 6.9375 -7.3125 L 8.859375 -6.5625 L 8.953125 3.453125 L 6.828125 2.640625 L 6.828125 0.921875 L 3.390625 -0.40625 L 2.234375 0.859375 Z M 4.5 -1.78125 L 6.9375 -0.84375 L 6.9375 -4.484375 Z M 4.5 -1.78125 "/></g></g></g><g fill="#000000" fill-opacity="1"><g transform="translate(104.847869, 262.012023)"><g><path d="M 1.09375 0.296875 L 3.515625 -8.6875 L 7.0625 -7.734375 C 8.007812 -7.472656 8.789062 -7.054688 9.40625 -6.484375 C 10.019531 -5.921875 10.429688 -5.25 10.640625 -4.46875 C 10.859375 -3.695312 10.847656 -2.863281 10.609375 -1.96875 C 10.359375 -1.070312 9.945312 -0.335938 9.375 0.234375 C 8.800781 0.804688 8.101562 1.179688 7.28125 1.359375 C 6.46875 1.546875 5.585938 1.507812 4.640625 1.25 Z M 3.625 -1.03125 L 5.09375 -0.640625 C 5.632812 -0.492188 6.132812 -0.472656 6.59375 -0.578125 C 7.0625 -0.691406 7.457031 -0.914062 7.78125 -1.25 C 8.113281 -1.582031 8.351562 -2.007812 8.5 -2.53125 C 8.632812 -3.0625 8.644531 -3.550781 8.53125 -4 C 8.414062 -4.457031 8.179688 -4.847656 7.828125 -5.171875 C 7.484375 -5.503906 7.039062 -5.742188 6.5 -5.890625 L 5.046875 -6.28125 Z M 3.625 -1.03125 "/></g></g></g><g fill="#000000" fill-opacity="1"><g transform="translate(117.761569, 265.314603)"><g><path d="M 0.125 0.015625 L 5.25 -8.59375 L 7.28125 -8.28125 L 9.46875 1.515625 L 7.234375 1.15625 L 6.875 -0.53125 L 3.234375 -1.125 L 2.359375 0.375 Z M 4.015625 -2.671875 L 6.609375 -2.265625 L 5.859375 -5.84375 Z M 4.015625 -2.671875 "/></g></g></g><g fill="#000000" fill-opacity="1"><g transform="translate(130.283739, 267.077292)"><g/></g></g><g fill="#000000" fill-opacity="1"><g transform="translate(136.302781, 267.562613)"><g><path d="M 1.125 0.015625 L 1.265625 -9.296875 L 7.375 -9.203125 L 7.34375 -7.421875 L 3.328125 -7.484375 L 3.296875 -5.5625 L 6.953125 -5.515625 L 6.9375 -3.734375 L 3.28125 -3.78125 L 3.25 -1.75 L 7.421875 -1.6875 L 7.390625 0.109375 Z M 1.125 0.015625 "/></g></g></g><g fill="#000000" fill-opacity="1"><g transform="translate(147.397516, 267.626747)"><g><path d="M 1.125 -0.09375 L 0.34375 -9.375 L 2.125 -9.53125 L 6.6875 -4.21875 L 6.21875 -9.875 L 8.3125 -10.046875 L 9.09375 -0.765625 L 7.296875 -0.609375 L 2.71875 -5.96875 L 3.203125 -0.265625 Z M 1.125 -0.09375 "/></g></g></g><g fill="#000000" fill-opacity="1"><g transform="translate(160.5139, 266.271093)"><g/></g></g><g fill="#000000" fill-opacity="1"><g transform="translate(166.51639, 265.316721)"><g><path d="M 1.09375 -0.265625 L -1.109375 -9.3125 L 0.640625 -9.734375 L 5.96875 -5.203125 L 4.625 -10.71875 L 6.65625 -11.203125 L 8.859375 -2.15625 L 7.125 -1.734375 L 1.765625 -6.328125 L 3.125 -0.765625 Z M 1.09375 -0.265625 "/></g></g></g><g fill="#000000" fill-opacity="1"><g transform="translate(179.400587, 261.997552)"><g><path d="M 4.6875 -1.484375 C 3.9375 -1.210938 3.234375 -1.128906 2.578125 -1.234375 C 1.921875 -1.347656 1.34375 -1.628906 0.84375 -2.078125 C 0.34375 -2.535156 -0.046875 -3.160156 -0.328125 -3.953125 L -2.171875 -9.109375 L -0.1875 -9.828125 L 1.609375 -4.8125 C 2.085938 -3.457031 2.882812 -2.976562 4 -3.375 C 5.125 -3.78125 5.445312 -4.660156 4.96875 -6.015625 L 3.171875 -11.03125 L 5.171875 -11.75 L 7.015625 -6.59375 C 7.296875 -5.800781 7.382812 -5.066406 7.28125 -4.390625 C 7.1875 -3.722656 6.921875 -3.140625 6.484375 -2.640625 C 6.054688 -2.148438 5.457031 -1.765625 4.6875 -1.484375 Z M 4.6875 -1.484375 "/></g></g></g><g fill="#000000" fill-opacity="1"><g transform="translate(191.461545, 257.475886)"><g><path d="M 3.03125 -1.4375 L -0.125 -8.046875 L -2.796875 -6.78125 L -3.640625 -8.578125 L 3.609375 -12.03125 L 4.453125 -10.234375 L 1.78125 -8.96875 L 4.9375 -2.359375 Z M 3.03125 -1.4375 "/></g></g></g><g fill="#000000" fill-opacity="1"><g transform="translate(202.100695, 252.259305)"><g><path d="M 0.96875 -0.578125 L -3.84375 -8.546875 L -0.453125 -10.59375 C 0.148438 -10.957031 0.742188 -11.164062 1.328125 -11.21875 C 1.921875 -11.28125 2.460938 -11.179688 2.953125 -10.921875 C 3.441406 -10.660156 3.859375 -10.242188 4.203125 -9.671875 C 4.554688 -9.078125 4.726562 -8.488281 4.71875 -7.90625 C 4.707031 -7.332031 4.519531 -6.789062 4.15625 -6.28125 L 7.5 -4.515625 L 5.390625 -3.25 L 2.46875 -4.875 L 1.265625 -4.15625 L 2.765625 -1.671875 Z M 0.328125 -5.671875 L 1.703125 -6.5 C 2.148438 -6.769531 2.429688 -7.082031 2.546875 -7.4375 C 2.660156 -7.789062 2.601562 -8.160156 2.375 -8.546875 C 2.132812 -8.941406 1.832031 -9.171875 1.46875 -9.234375 C 1.101562 -9.296875 0.695312 -9.191406 0.25 -8.921875 L -1.125 -8.09375 Z M 0.328125 -5.671875 "/></g></g></g><g fill="#000000" fill-opacity="1"><g transform="translate(212.535314, 245.71803)"><g><path d="M 0.921875 -0.65625 L -4.5 -8.234375 L -2.796875 -9.46875 L 2.625 -1.890625 Z M 0.921875 -0.65625 "/></g></g></g><g fill="#000000" fill-opacity="1"><g transform="translate(218.501378, 241.458045)"><g><path d="M 4.21875 -3.359375 C 3.507812 -2.742188 2.742188 -2.359375 1.921875 -2.203125 C 1.097656 -2.046875 0.296875 -2.109375 -0.484375 -2.390625 C -1.265625 -2.679688 -1.960938 -3.191406 -2.578125 -3.921875 C -3.191406 -4.640625 -3.582031 -5.40625 -3.75 -6.21875 C -3.914062 -7.039062 -3.859375 -7.84375 -3.578125 -8.625 C -3.296875 -9.414062 -2.796875 -10.113281 -2.078125 -10.71875 C -1.472656 -11.238281 -0.820312 -11.59375 -0.125 -11.78125 C 0.5625 -11.96875 1.253906 -12 1.953125 -11.875 C 2.648438 -11.757812 3.3125 -11.472656 3.9375 -11.015625 L 2.265625 -9.59375 C 1.785156 -9.875 1.28125 -9.976562 0.75 -9.90625 C 0.21875 -9.84375 -0.273438 -9.617188 -0.734375 -9.234375 C -1.128906 -8.890625 -1.40625 -8.492188 -1.5625 -8.046875 C -1.71875 -7.597656 -1.742188 -7.140625 -1.640625 -6.671875 C -1.535156 -6.203125 -1.300781 -5.753906 -0.9375 -5.328125 C -0.582031 -4.898438 -0.179688 -4.597656 0.265625 -4.421875 C 0.722656 -4.242188 1.179688 -4.195312 1.640625 -4.28125 C 2.109375 -4.363281 2.546875 -4.578125 2.953125 -4.921875 C 3.410156 -5.304688 3.710938 -5.769531 3.859375 -6.3125 C 4.015625 -6.851562 3.992188 -7.390625 3.796875 -7.921875 L 5.453125 -9.328125 C 5.828125 -8.671875 6.023438 -7.976562 6.046875 -7.25 C 6.066406 -6.53125 5.921875 -5.832031 5.609375 -5.15625 C 5.304688 -4.488281 4.84375 -3.890625 4.21875 -3.359375 Z M 4.21875 -3.359375 "/></g></g></g><g fill="#000000" fill-opacity="1"><g transform="translate(228.757852, 232.363862)"><g><path d="M 0.796875 -0.796875 L -5.828125 -7.34375 L -4.34375 -8.84375 L 2.28125 -2.296875 Z M 0.796875 -0.796875 "/></g></g></g><g fill="#000000" fill-opacity="1"><g transform="translate(233.929775, 227.160604)"><g><path d="M 3.671875 -4.125 C 3.054688 -3.382812 2.347656 -2.859375 1.546875 -2.546875 C 0.753906 -2.242188 -0.0507812 -2.160156 -0.875 -2.296875 C -1.695312 -2.429688 -2.472656 -2.800781 -3.203125 -3.40625 C -3.929688 -4.019531 -4.441406 -4.722656 -4.734375 -5.515625 C -5.035156 -6.304688 -5.101562 -7.117188 -4.9375 -7.953125 C -4.78125 -8.796875 -4.394531 -9.585938 -3.78125 -10.328125 C -3.15625 -11.085938 -2.441406 -11.617188 -1.640625 -11.921875 C -0.847656 -12.234375 -0.0351562 -12.320312 0.796875 -12.1875 C 1.628906 -12.050781 2.410156 -11.675781 3.140625 -11.0625 C 3.867188 -10.457031 4.375 -9.757812 4.65625 -8.96875 C 4.945312 -8.175781 5.007812 -7.359375 4.84375 -6.515625 C 4.6875 -5.679688 4.296875 -4.882812 3.671875 -4.125 Z M -1.828125 -5.078125 C -1.398438 -4.734375 -0.945312 -4.515625 -0.46875 -4.421875 C 0.0078125 -4.328125 0.472656 -4.363281 0.921875 -4.53125 C 1.378906 -4.707031 1.78125 -5.003906 2.125 -5.421875 C 2.488281 -5.859375 2.710938 -6.3125 2.796875 -6.78125 C 2.890625 -7.257812 2.84375 -7.726562 2.65625 -8.1875 C 2.476562 -8.644531 2.175781 -9.046875 1.75 -9.390625 C 1.3125 -9.753906 0.851562 -9.976562 0.375 -10.0625 C -0.09375 -10.15625 -0.550781 -10.117188 -1 -9.953125 C -1.457031 -9.785156 -1.867188 -9.484375 -2.234375 -9.046875 C -2.578125 -8.628906 -2.789062 -8.179688 -2.875 -7.703125 C -2.96875 -7.222656 -2.925781 -6.753906 -2.75 -6.296875 C -2.570312 -5.847656 -2.265625 -5.441406 -1.828125 -5.078125 Z M -1.828125 -5.078125 "/></g></g></g><g fill="#000000" fill-opacity="1"><g transform="translate(242.832576, 216.14332)"><g><path d="M 0.625 -0.9375 L -7.15625 -6.0625 L -6.171875 -7.5625 L 0.828125 -7.875 L -3.90625 -11 L -2.765625 -12.75 L 5.015625 -7.625 L 4.03125 -6.125 L -3.015625 -5.828125 L 1.765625 -2.6875 Z M 0.625 -0.9375 "/></g></g></g></g></g></svg>